<?xml version="1.0" encoding="UTF-8"?>
<!DOCTYPE svg PUBLIC "-//W3C//DTD SVG 1.1//EN" "http://www.w3.org/Graphics/SVG/1.1/DTD/svg11.dtd">
<svg xmlns="http://www.w3.org/2000/svg" version="1.1" width="1024px" height="1024px" style="shape-rendering:geometricPrecision; text-rendering:geometricPrecision; image-rendering:optimizeQuality; fill-rule:evenodd; clip-rule:evenodd" xmlns:xlink="http://www.w3.org/1999/xlink">
<g><path style="opacity:1" fill="#fefefe" d="M -0.5,-0.5 C 340.833,-0.5 682.167,-0.5 1023.5,-0.5C 1023.5,340.833 1023.5,682.167 1023.5,1023.5C 682.167,1023.5 340.833,1023.5 -0.5,1023.5C -0.5,682.167 -0.5,340.833 -0.5,-0.5 Z"/></g>
<g><path style="opacity:1" fill="#3ab6cd" d="M 783.5,379.5 C 790.629,384.462 791.295,390.296 785.5,397C 782.986,398.252 780.32,398.752 777.5,398.5C 771.845,396.089 769.678,391.756 771,385.5C 773.441,380.073 777.608,378.073 783.5,379.5 Z"/></g>
<g><path style="opacity:1" fill="#3fb3cf" d="M 746.5,386.5 C 754.867,386.331 757.2,389.831 753.5,397C 747.787,400.059 744.453,398.393 743.5,392C 743.863,389.808 744.863,387.974 746.5,386.5 Z"/></g>
<g><path style="opacity:1" fill="#d7f8fc" d="M 783.5,379.5 C 788.801,380.31 791.468,383.477 791.5,389C 790.605,391.82 789.771,394.654 789,397.5C 785.158,399.414 781.325,399.747 777.5,398.5C 780.32,398.752 782.986,398.252 785.5,397C 791.295,390.296 790.629,384.462 783.5,379.5 Z"/></g>
<g><path style="opacity:1" fill="#3cbece" d="M 819.5,404.5 C 814.971,406.649 810.305,406.982 805.5,405.5C 798.884,399.044 798.884,392.544 805.5,386C 815.087,383.079 820.753,386.579 822.5,396.5C 822.036,399.417 821.036,402.084 819.5,404.5 Z"/></g>
<g><path style="opacity:1" fill="#40a8c1" d="M 717.5,401.5 C 724.004,401.138 725.671,403.638 722.5,409C 716.785,409.401 715.119,406.901 717.5,401.5 Z"/></g>
<g><path style="opacity:1" fill="#cbf7fa" d="M 819.5,404.5 C 819.53,405.497 819.03,406.164 818,406.5C 814.211,407.562 810.377,407.729 806.5,407C 805.944,406.617 805.611,406.117 805.5,405.5C 810.305,406.982 814.971,406.649 819.5,404.5 Z"/></g>
<g><path style="opacity:1" fill="#3ec7ce" d="M 836.5,400.5 C 847.236,400.728 852.07,406.061 851,416.5C 847.783,423.588 842.283,426.088 834.5,424C 827.554,419.464 825.721,413.297 829,405.5C 830.913,402.72 833.413,401.053 836.5,400.5 Z"/></g>
<g><path style="opacity:1" fill="#3abecd" d="M 785.5,412.5 C 789.723,421.707 786.723,426.04 776.5,425.5C 774.362,421.71 774.028,417.71 775.5,413.5C 778.596,411.209 781.929,410.875 785.5,412.5 Z"/></g>
<g><path style="opacity:1" fill="#d6f8f9" d="M 785.5,412.5 C 787.124,412.36 788.29,413.027 789,414.5C 790.758,425.252 786.591,428.919 776.5,425.5C 786.723,426.04 789.723,421.707 785.5,412.5 Z"/></g>
<g><path style="opacity:1" fill="#dffefe" d="M 804.5,439.5 C 817.37,444.454 823.203,440.12 822,426.5C 819.894,422.177 816.394,420.177 811.5,420.5C 808.922,420.442 806.589,421.109 804.5,422.5C 804.36,420.876 805.027,419.71 806.5,419C 817.06,416.517 823.06,420.85 824.5,432C 824.384,436.902 822.051,440.236 817.5,442C 813.5,442.667 809.5,442.667 805.5,442C 804.748,441.329 804.414,440.496 804.5,439.5 Z"/></g>
<g><path style="opacity:1" fill="#46a7c3" d="M 697.5,425.5 C 698.833,425.5 700.167,425.5 701.5,425.5C 701.99,427.948 701.157,429.615 699,430.5C 696.389,429.5 695.889,427.833 697.5,425.5 Z"/></g>
<g><path style="opacity:1" fill="#3bcecd" d="M 804.5,439.5 C 800.673,433.767 800.673,428.1 804.5,422.5C 806.589,421.109 808.922,420.442 811.5,420.5C 816.394,420.177 819.894,422.177 822,426.5C 823.203,440.12 817.37,444.454 804.5,439.5 Z"/></g>
<g><path style="opacity:1" fill="#dafdfd" d="M 863.5,425.5 C 866.167,425.833 868.833,426.167 871.5,426.5C 873.184,429.216 874.35,432.216 875,435.5C 875.796,438.039 875.629,440.372 874.5,442.5C 874.543,439.09 874.043,435.757 873,432.5C 870.21,429.535 867.043,427.202 863.5,425.5 Z"/></g>
<g><path style="opacity:1" fill="#3fd1cd" d="M 863.5,425.5 C 867.043,427.202 870.21,429.535 873,432.5C 874.043,435.757 874.543,439.09 874.5,442.5C 874.5,442.833 874.5,443.167 874.5,443.5C 871.561,451.147 865.894,454.48 857.5,453.5C 848.812,450.624 845.312,444.624 847,435.5C 849.591,427.415 855.091,424.081 863.5,425.5 Z"/></g>
<g><path style="opacity:1" fill="#c2f8f9" d="M 569.5,440.5 C 560.605,440.139 551.939,440.806 543.5,442.5C 541.097,442.448 538.764,442.781 536.5,443.5C 537.058,442.21 538.058,441.377 539.5,441C 549.646,439.539 559.646,439.372 569.5,440.5 Z"/></g>
<g><path style="opacity:1" fill="#e6fefe" d="M 430.5,447.5 C 428.421,447.029 426.421,446.363 424.5,445.5C 419.905,444.352 415.238,443.519 410.5,443C 389.169,442.5 367.836,442.333 346.5,442.5C 356.645,441.168 367.145,440.501 378,440.5C 395.013,439.868 411.846,441.034 428.5,444C 429.305,445.113 429.972,446.279 430.5,447.5 Z"/></g>
<g><path style="opacity:1" fill="#cbfdfc" d="M 748.5,466.5 C 748.5,458.5 748.5,450.5 748.5,442.5C 711.167,442.5 673.833,442.5 636.5,442.5C 636.5,450.5 636.5,458.5 636.5,466.5C 636.167,466.5 635.833,466.5 635.5,466.5C 635.5,458.167 635.5,449.833 635.5,441.5C 673.5,441.5 711.5,441.5 749.5,441.5C 749.826,450.017 749.493,458.35 748.5,466.5 Z"/></g>
<g><path style="opacity:1" fill="#54beb8" d="M 748.5,466.5 C 735.167,466.5 721.833,466.5 708.5,466.5C 721.323,465.505 734.323,465.171 747.5,465.5C 747.813,458.245 747.48,451.079 746.5,444C 710.168,443.5 673.835,443.333 637.5,443.5C 637.5,450.833 637.5,458.167 637.5,465.5C 651.913,465.168 665.58,465.501 678.5,466.5C 664.5,466.5 650.5,466.5 636.5,466.5C 636.5,458.5 636.5,450.5 636.5,442.5C 673.833,442.5 711.167,442.5 748.5,442.5C 748.5,450.5 748.5,458.5 748.5,466.5 Z"/></g>
<g><path style="opacity:1" fill="#2b92cb" d="M 219.5,443.5 C 254.996,442.502 290.663,442.168 326.5,442.5C 326.665,445.85 326.498,449.183 326,452.5C 322.606,458.619 319.772,464.952 317.5,471.5C 316.833,471.833 316.167,472.167 315.5,472.5C 315.969,468.263 317.136,464.263 319,460.5C 319.333,457.167 319.667,453.833 320,450.5C 320.749,456.316 322.082,456.649 324,451.5C 324.497,449.19 324.663,446.857 324.5,444.5C 290.17,443.874 255.837,443.54 221.5,443.5C 221.167,443.5 220.833,443.5 220.5,443.5C 220.167,443.5 219.833,443.5 219.5,443.5 Z"/></g>
<g><path style="opacity:1" fill="#1493e8" d="M 192.5,581.5 C 183.014,582.494 173.348,582.827 163.5,582.5C 163.5,582.167 163.5,581.833 163.5,581.5C 163.832,543.663 163.498,505.996 162.5,468.5C 156.355,467.51 150.022,467.177 143.5,467.5C 143.5,459.5 143.5,451.5 143.5,443.5C 159.5,443.5 175.5,443.5 191.5,443.5C 191.168,489.67 191.501,535.67 192.5,581.5 Z"/></g>
<g><path style="opacity:1" fill="#1299e8" d="M 220.5,443.5 C 220.833,443.5 221.167,443.5 221.5,443.5C 237.992,444.497 254.658,444.83 271.5,444.5C 271.688,446.103 271.188,447.437 270,448.5C 266,448.5 262,448.5 258,448.5C 257.577,447.044 256.744,446.544 255.5,447C 255.833,447.333 256.167,447.667 256.5,448C 255.695,452.749 255.195,457.582 255,462.5C 249.74,463.027 244.573,463.86 239.5,465C 252.5,465.667 265.5,465.667 278.5,465C 279.617,463.108 281.284,462.275 283.5,462.5C 283.5,463.5 283.5,464.5 283.5,465.5C 284.833,465.5 286.167,465.5 287.5,465.5C 287.715,467.179 287.048,468.179 285.5,468.5C 285.167,468.5 284.833,468.5 284.5,468.5C 263.34,467.503 242.007,467.169 220.5,467.5C 220.5,459.5 220.5,451.5 220.5,443.5 Z"/></g>
<g><path style="opacity:1" fill="#159de5" d="M 221.5,443.5 C 255.837,443.54 290.17,443.874 324.5,444.5C 324.663,446.857 324.497,449.19 324,451.5C 322.082,456.649 320.749,456.316 320,450.5C 319.667,453.833 319.333,457.167 319,460.5C 317.136,464.263 315.969,468.263 315.5,472.5C 307.797,489.575 299.797,506.575 291.5,523.5C 288.556,527.726 286.39,532.392 285,537.5C 283.758,539.859 282.258,541.859 280.5,543.5C 280.657,542.127 280.49,540.793 280,539.5C 278.257,542.27 276.423,544.937 274.5,547.5C 273.914,547.291 273.414,546.957 273,546.5C 272.783,543.512 271.783,540.845 270,538.5C 269.829,533.467 269.329,528.467 268.5,523.5C 266.543,526.009 265.876,528.676 266.5,531.5C 264.88,535.082 262.547,538.082 259.5,540.5C 258.738,539.372 258.071,538.205 257.5,537C 259.246,536.529 260.913,535.862 262.5,535C 261.978,534.439 261.645,533.772 261.5,533C 263.247,530.02 263.747,526.853 263,523.5C 262.667,524.167 262.333,524.833 262,525.5C 261.601,525.272 261.435,524.938 261.5,524.5C 262.517,520.947 264.017,517.614 266,514.5C 266.494,512.866 266.66,511.199 266.5,509.5C 267.496,509.586 268.329,509.252 269,508.5C 274.873,495.752 281.04,483.085 287.5,470.5C 287.03,469.537 286.363,469.537 285.5,470.5C 285.5,469.833 285.5,469.167 285.5,468.5C 287.048,468.179 287.715,467.179 287.5,465.5C 286.167,465.5 284.833,465.5 283.5,465.5C 283.5,464.5 283.5,463.5 283.5,462.5C 281.284,462.275 279.617,463.108 278.5,465C 265.5,465.667 252.5,465.667 239.5,465C 244.573,463.86 249.74,463.027 255,462.5C 255.195,457.582 255.695,452.749 256.5,448C 256.167,447.667 255.833,447.333 255.5,447C 256.744,446.544 257.577,447.044 258,448.5C 262,448.5 266,448.5 270,448.5C 271.188,447.437 271.688,446.103 271.5,444.5C 254.658,444.83 237.992,444.497 221.5,443.5 Z"/></g>
<g><path style="opacity:1" fill="#38d0cf" d="M 575.5,442.5 C 596.751,446.456 612.751,457.789 623.5,476.5C 619.188,472.621 615.355,468.288 612,463.5C 611.884,465.655 612.217,467.655 613,469.5C 611.649,467.981 610.149,466.648 608.5,465.5C 608.167,466.333 607.833,467.167 607.5,468C 609.118,469.981 610.451,472.148 611.5,474.5C 611.217,477.742 610.383,478.076 609,475.5C 607.733,478.275 606.233,480.941 604.5,483.5C 605.833,484.833 607.167,486.167 608.5,487.5C 606.813,492.556 604.813,492.556 602.5,487.5C 602.167,487.833 601.833,488.167 601.5,488.5C 603.371,491.234 604.371,494.234 604.5,497.5C 599.326,485.993 591.326,476.993 580.5,470.5C 580.092,469.357 579.425,468.357 578.5,467.5C 575.55,466.512 572.55,465.679 569.5,465C 562.833,464.667 556.167,464.333 549.5,464C 552.688,462.684 556.022,462.184 559.5,462.5C 559.803,457.57 559.469,452.737 558.5,448C 559.779,446.354 561.445,445.187 563.5,444.5C 562.271,443.719 560.938,443.219 559.5,443C 564.823,442.501 570.156,442.334 575.5,442.5 Z"/></g>
<g><path style="opacity:1" fill="#2fb8db" d="M 424.5,445.5 C 426.421,446.363 428.421,447.029 430.5,447.5C 431.167,447.5 431.5,447.833 431.5,448.5C 431.369,449.376 431.702,450.043 432.5,450.5C 438.029,452.758 443.029,455.758 447.5,459.5C 447.38,460.586 446.713,461.253 445.5,461.5C 442.282,463.372 438.948,463.705 435.5,462.5C 436.729,461.719 438.062,461.219 439.5,461C 437.689,457.77 435.023,456.104 431.5,456C 430.353,458.085 431.02,459.585 433.5,460.5C 431.665,461.428 431.332,462.594 432.5,464C 431.953,464.925 431.287,465.758 430.5,466.5C 426.698,462.071 424.698,462.738 424.5,468.5C 422.5,468.5 420.5,468.5 418.5,468.5C 406.911,466.808 395.244,466.142 383.5,466.5C 380.5,466.5 377.5,466.5 374.5,466.5C 374.169,496.671 374.502,526.671 375.5,556.5C 375.5,556.833 375.5,557.167 375.5,557.5C 375.5,558.5 375.5,559.5 375.5,560.5C 378.068,559.55 380.568,559.55 383,560.5C 383.499,565.155 383.666,569.821 383.5,574.5C 372.788,575.173 362.121,575.173 351.5,574.5C 349.84,575.172 348.507,576.172 347.5,577.5C 347.5,532.833 347.5,488.167 347.5,443.5C 367.503,443.333 387.503,443.5 407.5,444C 412.412,444.385 417.246,445.218 422,446.5C 423.07,446.472 423.903,446.139 424.5,445.5 Z"/></g>
<g><path style="opacity:1" fill="#35cbd0" d="M 569.5,440.5 C 571.626,441.048 573.626,441.715 575.5,442.5C 570.156,442.334 564.823,442.501 559.5,443C 560.938,443.219 562.271,443.719 563.5,444.5C 561.445,445.187 559.779,446.354 558.5,448C 559.469,452.737 559.803,457.57 559.5,462.5C 556.022,462.184 552.688,462.684 549.5,464C 556.167,464.333 562.833,464.667 569.5,465C 572.55,465.679 575.55,466.512 578.5,467.5C 579.425,468.357 580.092,469.357 580.5,470.5C 561.046,461.732 543.379,464.399 527.5,478.5C 526.178,478.33 525.011,478.663 524,479.5C 521.752,482.328 519.752,485.328 518,488.5C 517.424,486.623 517.591,484.789 518.5,483C 517.053,478.199 514.386,477.365 510.5,480.5C 509.5,480.167 508.833,479.5 508.5,478.5C 509.077,476.45 510.41,475.45 512.5,475.5C 512.769,473.571 512.269,471.905 511,470.5C 500.079,482.749 498.912,481.749 507.5,467.5C 508.85,466.05 510.516,465.383 512.5,465.5C 512.351,464.448 512.517,463.448 513,462.5C 514.699,463.406 516.533,463.739 518.5,463.5C 519.775,458.561 522.775,455.228 527.5,453.5C 527.634,451.708 527.301,450.042 526.5,448.5C 532.509,447.255 538.175,445.255 543.5,442.5C 551.939,440.806 560.605,440.139 569.5,440.5 Z"/></g>
<g><path style="opacity:1" fill="#3ad6cd" d="M 708.5,466.5 C 707.167,466.5 706.5,467.167 706.5,468.5C 705.833,505.669 705.167,543.002 704.5,580.5C 696.222,581.47 687.889,581.803 679.5,581.5C 679.832,543.33 679.499,505.33 678.5,467.5C 678.5,467.167 678.5,466.833 678.5,466.5C 665.58,465.501 651.913,465.168 637.5,465.5C 637.5,458.167 637.5,450.833 637.5,443.5C 673.835,443.333 710.168,443.5 746.5,444C 747.48,451.079 747.813,458.245 747.5,465.5C 734.323,465.171 721.323,465.505 708.5,466.5 Z"/></g>
<g><path style="opacity:1" fill="#e3fcfe" d="M 163.5,582.5 C 173.348,582.827 183.014,582.494 192.5,581.5C 192.5,535.167 192.5,488.833 192.5,442.5C 175.833,442.5 159.167,442.5 142.5,442.5C 142.5,451.167 142.5,459.833 142.5,468.5C 141.507,460.016 141.174,451.349 141.5,442.5C 158.18,440.816 175.18,439.816 192.5,439.5C 193.949,441.611 194.949,443.944 195.5,446.5C 194.672,492.126 194.172,537.792 194,583.5C 193.692,584.308 193.192,584.975 192.5,585.5C 182.688,584.704 173.022,583.704 163.5,582.5 Z"/></g>
<g><path style="opacity:1" fill="#dcfcfc" d="M 874.5,443.5 C 874.98,448.914 872.646,452.414 867.5,454C 863.973,454.808 860.64,454.641 857.5,453.5C 865.894,454.48 871.561,451.147 874.5,443.5 Z"/></g>
<g><path style="opacity:1" fill="#2576b6" d="M 192.5,581.5 C 191.501,535.67 191.168,489.67 191.5,443.5C 175.5,443.5 159.5,443.5 143.5,443.5C 143.5,451.5 143.5,459.5 143.5,467.5C 150.022,467.177 156.355,467.51 162.5,468.5C 155.833,468.5 149.167,468.5 142.5,468.5C 142.5,459.833 142.5,451.167 142.5,442.5C 159.167,442.5 175.833,442.5 192.5,442.5C 192.5,488.833 192.5,535.167 192.5,581.5 Z"/></g>
<g><path style="opacity:1" fill="#3cd3cc" d="M 844.5,452.5 C 844.826,464.339 839.16,469.173 827.5,467C 825.113,466.436 823.113,465.27 821.5,463.5C 816.379,446.122 822.379,439.955 839.5,445C 842.242,446.886 843.909,449.386 844.5,452.5 Z"/></g>
<g><path style="opacity:1" fill="#4fcdc4" d="M 881.5,483.5 C 880.177,485.686 878.177,487.186 875.5,488C 870.665,488.777 865.998,488.277 861.5,486.5C 856.54,481.117 854.707,474.783 856,467.5C 856.697,465.416 857.864,463.749 859.5,462.5C 866.223,458.858 873.223,458.524 880.5,461.5C 885.058,466.68 886.558,472.68 885,479.5C 884.34,481.324 883.173,482.657 881.5,483.5 Z"/></g>
<g><path style="opacity:1" fill="#3ad7ce" d="M 881.5,483.5 C 878.478,484.926 875.312,485.926 872,486.5C 870.833,486.333 869.667,486.167 868.5,486C 871.177,485.751 873.51,484.751 875.5,483C 870.783,482.524 866.117,482.524 861.5,483C 855.527,477.275 855.027,471.108 860,464.5C 868.535,458.339 875.868,459.339 882,467.5C 884.071,472.98 883.904,478.313 881.5,483.5 Z"/></g>
<g><path style="opacity:1" fill="#fcfefe" d="M 580.5,470.5 C 591.326,476.993 599.326,485.993 604.5,497.5C 604.5,498.833 604.5,500.167 604.5,501.5C 604.711,510.2 604.377,518.867 603.5,527.5C 599.662,540.671 591.328,549.671 578.5,554.5C 574.076,555.456 569.743,556.623 565.5,558C 561.514,558.499 557.514,558.666 553.5,558.5C 550.763,558.599 548.096,558.265 545.5,557.5C 528.409,550.899 517.909,538.566 514,520.5C 511.608,504.178 516.108,490.178 527.5,478.5C 543.379,464.399 561.046,461.732 580.5,470.5 Z"/></g>
<g><path style="opacity:1" fill="#1f76b3" d="M 219.5,443.5 C 219.833,443.5 220.167,443.5 220.5,443.5C 220.5,451.5 220.5,459.5 220.5,467.5C 242.007,467.169 263.34,467.503 284.5,468.5C 262.833,468.5 241.167,468.5 219.5,468.5C 219.5,460.167 219.5,451.833 219.5,443.5 Z"/></g>
<g><path style="opacity:1" fill="#e7fefe" d="M 635.5,466.5 C 635.833,466.5 636.167,466.5 636.5,466.5C 649.99,467.496 663.656,467.829 677.5,467.5C 677.168,505.67 677.501,543.67 678.5,581.5C 678.5,581.833 678.5,582.167 678.5,582.5C 676.506,544.848 675.839,506.848 676.5,468.5C 662.459,469.149 648.792,468.482 635.5,466.5 Z"/></g>
<g><path style="opacity:1" fill="#d4fdfd" d="M 844.5,452.5 C 846.651,458.181 845.318,463.014 840.5,467C 834.515,468.942 828.515,468.942 822.5,467C 821.663,465.989 821.33,464.822 821.5,463.5C 823.113,465.27 825.113,466.436 827.5,467C 839.16,469.173 844.826,464.339 844.5,452.5 Z"/></g>
<g><path style="opacity:1" fill="#cafdff" d="M 219.5,468.5 C 241.167,468.5 262.833,468.5 284.5,468.5C 284.833,468.5 285.167,468.5 285.5,468.5C 285.5,469.167 285.5,469.833 285.5,470.5C 285.068,471.71 284.401,472.71 283.5,473.5C 283.5,472.167 283.5,470.833 283.5,469.5C 261.993,469.831 240.66,469.497 219.5,468.5 Z"/></g>
<g><path style="opacity:1" fill="#41abc2" d="M 383.5,466.5 C 395.244,466.142 406.911,466.808 418.5,468.5C 442.777,480.714 451.61,500.38 445,527.5C 443.769,530.961 442.269,534.294 440.5,537.5C 439.069,539.938 437.069,541.604 434.5,542.5C 437.943,537.949 440.61,532.949 442.5,527.5C 446.315,517.032 446.481,506.365 443,495.5C 441.643,492.102 439.81,489.102 437.5,486.5C 432.326,478.242 424.992,472.908 415.5,470.5C 414.737,469.732 413.737,469.232 412.5,469C 400.171,468.5 387.838,468.333 375.5,468.5C 378.167,467.833 380.833,467.167 383.5,466.5 Z"/></g>
<g><path style="opacity:1" fill="#4dbec4" d="M 543.5,442.5 C 538.175,445.255 532.509,447.255 526.5,448.5C 522.235,452.266 517.568,455.433 512.5,458C 502.49,466.506 495.324,477.006 491,489.5C 489.031,495.013 487.697,500.679 487,506.5C 486.517,505.552 486.351,504.552 486.5,503.5C 486.508,500.455 486.841,497.455 487.5,494.5C 494.747,468.589 511.081,451.589 536.5,443.5C 538.764,442.781 541.097,442.448 543.5,442.5 Z"/></g>
<g><path style="opacity:1" fill="#fdfefe" d="M 415.5,470.5 C 424.992,472.908 432.326,478.242 437.5,486.5C 440.087,492.644 442.253,498.977 444,505.5C 444.601,512.948 444.101,520.282 442.5,527.5C 440.61,532.949 437.943,537.949 434.5,542.5C 427.359,550.572 418.359,555.238 407.5,556.5C 397.167,556.5 386.833,556.5 376.5,556.5C 376.5,527.833 376.5,499.167 376.5,470.5C 389.5,470.5 402.5,470.5 415.5,470.5 Z"/></g>
<g><path style="opacity:1" fill="#d9fcfc" d="M 859.5,462.5 C 857.864,463.749 856.697,465.416 856,467.5C 854.707,474.783 856.54,481.117 861.5,486.5C 858.265,485.733 856.099,483.733 855,480.5C 853.988,474.65 854.488,468.984 856.5,463.5C 857.325,462.614 858.325,462.281 859.5,462.5 Z"/></g>
<g><path style="opacity:1" fill="#38d2ce" d="M 623.5,476.5 C 625.074,477.984 626.407,479.651 627.5,481.5C 629.212,489.024 631.212,496.357 633.5,503.5C 633.985,514.737 632.651,525.737 629.5,536.5C 628.227,538.713 627.227,541.046 626.5,543.5C 623.57,549.094 620.237,554.428 616.5,559.5C 613.5,562.167 610.5,564.833 607.5,567.5C 605.692,567.491 604.025,567.991 602.5,569C 599.5,571.167 596.5,573.333 593.5,575.5C 591.559,573.684 590.892,571.684 591.5,569.5C 592.99,568.174 594.324,566.674 595.5,565C 594.483,563.951 594.316,562.784 595,561.5C 596.904,562.102 598.737,561.602 600.5,560C 598.22,559.767 596.22,558.934 594.5,557.5C 593.719,558.729 593.219,560.062 593,561.5C 591.957,559.299 591.123,556.966 590.5,554.5C 588.232,555.544 585.899,555.711 583.5,555C 602.517,542.733 610.184,526.566 606.5,506.5C 605.833,504.833 605.167,503.167 604.5,501.5C 604.5,500.167 604.5,498.833 604.5,497.5C 604.371,494.234 603.371,491.234 601.5,488.5C 601.833,488.167 602.167,487.833 602.5,487.5C 604.813,492.556 606.813,492.556 608.5,487.5C 607.167,486.167 605.833,484.833 604.5,483.5C 606.233,480.941 607.733,478.275 609,475.5C 610.383,478.076 611.217,477.742 611.5,474.5C 610.451,472.148 609.118,469.981 607.5,468C 607.833,467.167 608.167,466.333 608.5,465.5C 610.149,466.648 611.649,467.981 613,469.5C 612.217,467.655 611.884,465.655 612,463.5C 615.355,468.288 619.188,472.621 623.5,476.5 Z"/></g>
<g><path style="opacity:1" fill="#e9fefe" d="M 748.5,467.5 C 735.344,468.496 722.01,468.829 708.5,468.5C 708.667,506.501 708.5,544.501 708,582.5C 707.5,583 707,583.5 706.5,584C 701.833,584.167 697.167,584.333 692.5,584.5C 687.449,584.493 682.783,583.827 678.5,582.5C 688.015,582.827 697.348,582.494 706.5,581.5C 707.499,543.67 707.832,505.67 707.5,467.5C 721.167,467.5 734.833,467.5 748.5,467.5 Z"/></g>
<g><path style="opacity:1" fill="#3fd5cb" d="M 850.5,481.5 C 852.602,496.563 846.269,503.063 831.5,501C 829.004,499.334 826.671,497.5 824.5,495.5C 821.063,480.107 827.063,473.607 842.5,476C 845.369,477.596 848.036,479.43 850.5,481.5 Z"/></g>
<g><path style="opacity:1" fill="#e5feff" d="M 141.5,442.5 C 141.174,451.349 141.507,460.016 142.5,468.5C 149.167,468.5 155.833,468.5 162.5,468.5C 163.498,505.996 163.832,543.663 163.5,581.5C 162.502,544.67 162.168,507.67 162.5,470.5C 155.319,470.589 148.319,470.589 141.5,470.5C 140.182,461.039 140.182,451.705 141.5,442.5 Z"/></g>
<g><path style="opacity:1" fill="#34c6d3" d="M 526.5,448.5 C 527.301,450.042 527.634,451.708 527.5,453.5C 522.775,455.228 519.775,458.561 518.5,463.5C 516.533,463.739 514.699,463.406 513,462.5C 512.517,463.448 512.351,464.448 512.5,465.5C 510.516,465.383 508.85,466.05 507.5,467.5C 498.912,481.749 500.079,482.749 511,470.5C 512.269,471.905 512.769,473.571 512.5,475.5C 510.41,475.45 509.077,476.45 508.5,478.5C 508.833,479.5 509.5,480.167 510.5,480.5C 514.386,477.365 517.053,478.199 518.5,483C 517.591,484.789 517.424,486.623 518,488.5C 519.752,485.328 521.752,482.328 524,479.5C 525.011,478.663 526.178,478.33 527.5,478.5C 516.108,490.178 511.608,504.178 514,520.5C 517.909,538.566 528.409,550.899 545.5,557.5C 545.265,558.097 544.765,558.43 544,558.5C 538.97,557.069 534.47,554.736 530.5,551.5C 527.536,549.038 524.703,546.371 522,543.5C 521.882,546.371 521.216,549.038 520,551.5C 515.897,547.046 511.063,544.046 505.5,542.5C 504.923,545.55 506.09,547.55 509,548.5C 509.592,553.698 507.759,554.698 503.5,551.5C 501.717,552.348 501.217,553.681 502,555.5C 507.434,562.437 513.934,568.103 521.5,572.5C 521.5,573.167 521.5,573.833 521.5,574.5C 511.611,568.781 503.444,561.114 497,551.5C 493.84,545.52 491.007,539.52 488.5,533.5C 487.671,528.846 486.837,524.18 486,519.5C 485.183,513.984 485.349,508.65 486.5,503.5C 486.351,504.552 486.517,505.552 487,506.5C 487.697,500.679 489.031,495.013 491,489.5C 495.324,477.006 502.49,466.506 512.5,458C 517.568,455.433 522.235,452.266 526.5,448.5 Z"/></g>
<g><path style="opacity:1" fill="#42acc2" d="M 431.5,448.5 C 452.187,456.846 465.854,471.513 472.5,492.5C 475.097,505.507 475.097,518.507 472.5,531.5C 471.129,533.936 470.129,536.603 469.5,539.5C 466.422,545.323 463.089,550.99 459.5,556.5C 458.167,557.5 456.833,558.5 455.5,559.5C 457.786,555.22 460.453,551.22 463.5,547.5C 474.941,526.707 476.108,505.374 467,483.5C 462.524,473.857 456.024,465.857 447.5,459.5C 443.029,455.758 438.029,452.758 432.5,450.5C 431.702,450.043 431.369,449.376 431.5,448.5 Z"/></g>
<g><path style="opacity:1" fill="#3192cd" d="M 266.5,509.5 C 272.169,497.495 277.836,485.495 283.5,473.5C 284.401,472.71 285.068,471.71 285.5,470.5C 286.363,469.537 287.03,469.537 287.5,470.5C 281.04,483.085 274.873,495.752 269,508.5C 268.329,509.252 267.496,509.586 266.5,509.5 Z"/></g>
<g><path style="opacity:1" fill="#d9fdfc" d="M 627.5,481.5 C 631.357,488.255 633.357,495.589 633.5,503.5C 631.212,496.357 629.212,489.024 627.5,481.5 Z"/></g>
<g><path style="opacity:1" fill="#46a5bc" d="M 346.5,442.5 C 367.836,442.333 389.169,442.5 410.5,443C 415.238,443.519 419.905,444.352 424.5,445.5C 423.903,446.139 423.07,446.472 422,446.5C 417.246,445.218 412.412,444.385 407.5,444C 387.503,443.5 367.503,443.333 347.5,443.5C 347.5,488.167 347.5,532.833 347.5,577.5C 347.5,578.5 347.5,579.5 347.5,580.5C 370.167,580.5 392.833,580.5 415.5,580.5C 414.048,581.302 412.382,581.802 410.5,582C 389.169,582.5 367.836,582.667 346.5,582.5C 346.5,535.833 346.5,489.167 346.5,442.5 Z"/></g>
<g><path style="opacity:1" fill="#c9fefe" d="M 708.5,466.5 C 721.833,466.5 735.167,466.5 748.5,466.5C 748.5,466.833 748.5,467.167 748.5,467.5C 734.833,467.5 721.167,467.5 707.5,467.5C 707.832,505.67 707.499,543.67 706.5,581.5C 706.5,543.833 706.5,506.167 706.5,468.5C 706.5,467.167 707.167,466.5 708.5,466.5 Z"/></g>
<g><path style="opacity:1" fill="#d8fafd" d="M 437.5,486.5 C 439.81,489.102 441.643,492.102 443,495.5C 446.481,506.365 446.315,517.032 442.5,527.5C 444.101,520.282 444.601,512.948 444,505.5C 442.253,498.977 440.087,492.644 437.5,486.5 Z"/></g>
<g><path style="opacity:1" fill="#e1fefe" d="M 375.5,468.5 C 387.838,468.333 400.171,468.5 412.5,469C 413.737,469.232 414.737,469.732 415.5,470.5C 402.5,470.5 389.5,470.5 376.5,470.5C 376.5,499.167 376.5,527.833 376.5,556.5C 386.833,556.5 397.167,556.5 407.5,556.5C 397.013,557.494 386.346,557.828 375.5,557.5C 375.5,557.167 375.5,556.833 375.5,556.5C 375.5,527.167 375.5,497.833 375.5,468.5 Z"/></g>
<g><path style="opacity:1" fill="#30bbd8" d="M 447.5,459.5 C 456.024,465.857 462.524,473.857 467,483.5C 476.108,505.374 474.941,526.707 463.5,547.5C 460.453,551.22 457.786,555.22 455.5,559.5C 455.141,561.371 454.141,562.871 452.5,564C 448.099,567.188 443.766,570.355 439.5,573.5C 431.985,577.449 423.985,579.782 415.5,580.5C 392.833,580.5 370.167,580.5 347.5,580.5C 347.5,579.5 347.5,578.5 347.5,577.5C 348.507,576.172 349.84,575.172 351.5,574.5C 362.121,575.173 372.788,575.173 383.5,574.5C 383.666,569.821 383.499,565.155 383,560.5C 380.568,559.55 378.068,559.55 375.5,560.5C 375.5,559.5 375.5,558.5 375.5,557.5C 386.346,557.828 397.013,557.494 407.5,556.5C 418.359,555.238 427.359,550.572 434.5,542.5C 437.069,541.604 439.069,539.938 440.5,537.5C 442.269,534.294 443.769,530.961 445,527.5C 451.61,500.38 442.777,480.714 418.5,468.5C 420.5,468.5 422.5,468.5 424.5,468.5C 424.698,462.738 426.698,462.071 430.5,466.5C 431.287,465.758 431.953,464.925 432.5,464C 431.332,462.594 431.665,461.428 433.5,460.5C 431.02,459.585 430.353,458.085 431.5,456C 435.023,456.104 437.689,457.77 439.5,461C 438.062,461.219 436.729,461.719 435.5,462.5C 438.948,463.705 442.282,463.372 445.5,461.5C 446.713,461.253 447.38,460.586 447.5,459.5 Z"/></g>
<g><path style="opacity:1" fill="#e2fdfd" d="M 850.5,481.5 C 851.117,481.611 851.617,481.944 852,482.5C 852.676,487.871 852.509,493.204 851.5,498.5C 849.24,499.139 847.24,500.306 845.5,502C 839.509,502.499 833.509,502.666 827.5,502.5C 826.957,499.962 825.957,497.628 824.5,495.5C 826.671,497.5 829.004,499.334 831.5,501C 846.269,503.063 852.602,496.563 850.5,481.5 Z"/></g>
<g><path style="opacity:1" fill="#affcf9" d="M 636.5,466.5 C 650.5,466.5 664.5,466.5 678.5,466.5C 678.5,466.833 678.5,467.167 678.5,467.5C 678.5,505.5 678.5,543.5 678.5,581.5C 677.501,543.67 677.168,505.67 677.5,467.5C 663.656,467.829 649.99,467.496 636.5,466.5 Z"/></g>
<g><path style="opacity:1" fill="#d7fdfe" d="M 487.5,494.5 C 486.841,497.455 486.508,500.455 486.5,503.5C 485.349,508.65 485.183,513.984 486,519.5C 486.837,524.18 487.671,528.846 488.5,533.5C 485.556,526.426 484.223,518.926 484.5,511C 484.667,507.833 484.833,504.667 485,501.5C 485.156,498.809 485.989,496.476 487.5,494.5 Z"/></g>
<g><path style="opacity:1" fill="#d9fdfd" d="M 633.5,503.5 C 634.656,510.989 634.822,518.655 634,526.5C 633.148,530.264 631.648,533.597 629.5,536.5C 632.651,525.737 633.985,514.737 633.5,503.5 Z"/></g>
<g><path style="opacity:1" fill="#3ed7cb" d="M 881.5,503.5 C 884.488,513.916 881.155,521.25 871.5,525.5C 858.342,525.342 852.009,518.675 852.5,505.5C 854.367,498.132 859.2,494.799 867,495.5C 873.123,495.781 877.956,498.448 881.5,503.5 Z"/></g>
<g><path style="opacity:1" fill="#40d5ca" d="M 833.5,509.5 C 840.502,517.331 839.835,524.497 831.5,531C 828.518,531.498 825.518,531.665 822.5,531.5C 821.5,531.5 820.5,531.5 819.5,531.5C 813.201,525.879 811.867,519.213 815.5,511.5C 820.979,507.005 826.979,506.339 833.5,509.5 Z"/></g>
<g><path style="opacity:1" fill="#4abbb3" d="M 678.5,467.5 C 679.499,505.33 679.832,543.33 679.5,581.5C 687.889,581.803 696.222,581.47 704.5,580.5C 705.167,543.002 705.833,505.669 706.5,468.5C 706.5,506.167 706.5,543.833 706.5,581.5C 697.348,582.494 688.015,582.827 678.5,582.5C 678.5,582.167 678.5,581.833 678.5,581.5C 678.5,543.5 678.5,505.5 678.5,467.5 Z"/></g>
<g><path style="opacity:1" fill="#e3fafe" d="M 317.5,471.5 C 315.036,479.033 311.869,486.366 308,493.5C 307.316,494.784 307.483,495.951 308.5,497C 304.521,500.613 301.521,504.947 299.5,510C 299.755,511.326 300.422,512.326 301.5,513C 299.671,513.273 298.171,514.107 297,515.5C 295.873,518.789 294.039,521.455 291.5,523.5C 299.797,506.575 307.797,489.575 315.5,472.5C 316.167,472.167 316.833,471.833 317.5,471.5 Z"/></g>
<g><path style="opacity:1" fill="#ddfefd" d="M 815.5,511.5 C 811.867,519.213 813.201,525.879 819.5,531.5C 812.328,528.093 809.828,522.427 812,514.5C 812.759,512.937 813.926,511.937 815.5,511.5 Z"/></g>
<g><path style="opacity:1" fill="#dafdfc" d="M 881.5,503.5 C 882.812,505.743 883.478,508.41 883.5,511.5C 883.333,514.167 883.167,516.833 883,519.5C 879.881,522.925 876.048,524.925 871.5,525.5C 881.155,521.25 884.488,513.916 881.5,503.5 Z"/></g>
<g><path style="opacity:1" fill="#d9fdfc" d="M 852.5,505.5 C 852.009,518.675 858.342,525.342 871.5,525.5C 858.43,527.266 851.43,521.433 850.5,508C 850.684,506.624 851.351,505.791 852.5,505.5 Z"/></g>
<g><path style="opacity:1" fill="#dbfdfe" d="M 472.5,492.5 C 473.75,492.577 474.583,493.244 475,494.5C 475.667,505.5 475.667,516.5 475,527.5C 474.878,529.437 474.045,530.77 472.5,531.5C 475.097,518.507 475.097,505.507 472.5,492.5 Z"/></g>
<g><path style="opacity:1" fill="#d5fdfd" d="M 604.5,501.5 C 605.167,503.167 605.833,504.833 606.5,506.5C 606.666,510.846 606.499,515.179 606,519.5C 605.902,522.522 605.068,525.189 603.5,527.5C 604.377,518.867 604.711,510.2 604.5,501.5 Z"/></g>
<g><path style="opacity:1" fill="#238da9" d="M 383.5,466.5 C 380.833,467.167 378.167,467.833 375.5,468.5C 375.5,497.833 375.5,527.167 375.5,556.5C 374.502,526.671 374.169,496.671 374.5,466.5C 377.5,466.5 380.5,466.5 383.5,466.5 Z"/></g>
<g><path style="opacity:1" fill="#defdfc" d="M 833.5,509.5 C 837.975,511.49 840.308,514.99 840.5,520C 840.167,521.833 839.833,523.667 839.5,525.5C 838.155,526.347 837.155,527.513 836.5,529C 840.564,527.398 844.897,526.231 849.5,525.5C 850.726,525.52 851.726,525.853 852.5,526.5C 845.925,526.135 840.592,528.468 836.5,533.5C 836.5,532.5 836.5,531.5 836.5,530.5C 833.741,531.885 830.741,532.552 827.5,532.5C 825.631,532.493 823.964,532.16 822.5,531.5C 825.518,531.665 828.518,531.498 831.5,531C 839.835,524.497 840.502,517.331 833.5,509.5 Z"/></g>
<g><path style="opacity:1" fill="#dbfbfa" d="M 856.5,527.5 C 861.853,528.27 865.353,531.27 867,536.5C 867.667,540.5 867.667,544.5 867,548.5C 865.117,549.653 864.284,551.319 864.5,553.5C 862.641,553.461 861.308,554.294 860.5,556C 858.19,556.497 855.857,556.663 853.5,556.5C 858.332,555.664 861.666,552.997 863.5,548.5C 867.931,539.245 865.598,532.245 856.5,527.5 Z"/></g>
<g><path style="opacity:1" fill="#3793cf" d="M 266.5,509.5 C 266.66,511.199 266.494,512.866 266,514.5C 264.017,517.614 262.517,520.947 261.5,524.5C 253.541,540.418 245.541,556.418 237.5,572.5C 237.043,573.298 236.376,573.631 235.5,573.5C 245.471,551.88 255.804,530.547 266.5,509.5 Z"/></g>
<g><path style="opacity:1" fill="#53c8c0" d="M 743.5,535.5 C 744.822,535.33 745.989,535.663 747,536.5C 749.618,541.946 748.451,546.446 743.5,550C 734.495,551.326 730.328,547.493 731,538.5C 734.391,533.459 738.557,532.459 743.5,535.5 Z"/></g>
<g><path style="opacity:1" fill="#149ce7" d="M 280.5,543.5 C 275.54,550.087 272.207,557.421 270.5,565.5C 267.786,570.633 265.453,575.967 263.5,581.5C 252.986,581.828 242.653,581.494 232.5,580.5C 232.707,577.759 233.707,575.426 235.5,573.5C 236.376,573.631 237.043,573.298 237.5,572.5C 245.541,556.418 253.541,540.418 261.5,524.5C 261.435,524.938 261.601,525.272 262,525.5C 262.333,524.833 262.667,524.167 263,523.5C 263.747,526.853 263.247,530.02 261.5,533C 261.645,533.772 261.978,534.439 262.5,535C 260.913,535.862 259.246,536.529 257.5,537C 258.071,538.205 258.738,539.372 259.5,540.5C 262.547,538.082 264.88,535.082 266.5,531.5C 265.876,528.676 266.543,526.009 268.5,523.5C 269.329,528.467 269.829,533.467 270,538.5C 271.783,540.845 272.783,543.512 273,546.5C 273.414,546.957 273.914,547.291 274.5,547.5C 276.423,544.937 278.257,542.27 280,539.5C 280.49,540.793 280.657,542.127 280.5,543.5 Z"/></g>
<g><path style="opacity:1" fill="#3ed8cc" d="M 863.5,548.5 C 861.666,552.997 858.332,555.664 853.5,556.5C 850.753,556.813 848.086,556.48 845.5,555.5C 843.153,554.849 841.486,553.516 840.5,551.5C 834.579,542.751 835.912,535.251 844.5,529C 859.553,527.218 865.886,533.718 863.5,548.5 Z"/></g>
<g><path style="opacity:1" fill="#52c7bf" d="M 852.5,526.5 C 853.568,527.434 854.901,527.768 856.5,527.5C 865.598,532.245 867.931,539.245 863.5,548.5C 865.886,533.718 859.553,527.218 844.5,529C 835.912,535.251 834.579,542.751 840.5,551.5C 838.292,550.106 836.792,548.106 836,545.5C 835.503,541.476 835.669,537.476 836.5,533.5C 840.592,528.468 845.925,526.135 852.5,526.5 Z"/></g>
<g><path style="opacity:1" fill="#39d8cf" d="M 743.5,535.5 C 744.71,537.552 745.71,539.718 746.5,542C 745.584,547.754 742.251,550.087 736.5,549C 731.205,544.412 731.205,539.912 736.5,535.5C 737.429,536.689 737.762,538.022 737.5,539.5C 740.205,539.62 740.872,538.62 739.5,536.5C 740.689,535.571 742.022,535.238 743.5,535.5 Z"/></g>
<g><path style="opacity:1" fill="#4dc9bd" d="M 813.5,533.5 C 817.719,542.222 815.719,548.889 807.5,553.5C 796.558,553.892 791.225,548.558 791.5,537.5C 792.899,533.771 795.565,531.438 799.5,530.5C 804.632,528.734 809.299,529.734 813.5,533.5 Z"/></g>
<g><path style="opacity:1" fill="#3ad9cd" d="M 799.5,530.5 C 809.841,530.5 814.507,535.5 813.5,545.5C 810.286,550.938 805.62,552.771 799.5,551C 793.535,547.107 792.035,541.94 795,535.5C 797.415,534.589 798.915,532.922 799.5,530.5 Z"/></g>
<g><path style="opacity:1" fill="#d9fcfc" d="M 626.5,543.5 C 626.66,545.199 626.494,546.866 626,548.5C 623.906,550.921 622.24,553.588 621,556.5C 619.729,557.883 618.229,558.883 616.5,559.5C 620.237,554.428 623.57,549.094 626.5,543.5 Z"/></g>
<g><path style="opacity:1" fill="#dbfdfd" d="M 791.5,537.5 C 791.225,548.558 796.558,553.892 807.5,553.5C 797.265,556.203 791.599,552.203 790.5,541.5C 790.511,539.955 790.844,538.622 791.5,537.5 Z"/></g>
<g><path style="opacity:1" fill="#e4fdfd" d="M 813.5,533.5 C 814.5,533.5 815.5,533.5 816.5,533.5C 816.5,535.167 816.5,536.833 816.5,538.5C 817.675,538.281 818.675,538.614 819.5,539.5C 818.685,541.955 817.685,544.289 816.5,546.5C 816.608,547.442 816.941,548.275 817.5,549C 815.096,549.508 814.429,550.675 815.5,552.5C 819.907,550.464 824.574,549.964 829.5,551C 831.55,551.416 832.884,552.583 833.5,554.5C 817.778,548.577 810.111,553.91 810.5,570.5C 809.355,566.689 809.188,562.689 810,558.5C 810.635,557.034 811.469,555.7 812.5,554.5C 810.955,553.548 809.288,553.215 807.5,553.5C 815.719,548.889 817.719,542.222 813.5,533.5 Z"/></g>
<g><path style="opacity:1" fill="#3d95cc" d="M 280.5,543.5 C 277.683,551.129 274.35,558.463 270.5,565.5C 272.207,557.421 275.54,550.087 280.5,543.5 Z"/></g>
<g><path style="opacity:1" fill="#dbfafc" d="M 469.5,539.5 C 469.322,542.216 468.822,544.883 468,547.5C 466.171,549.156 464.837,551.156 464,553.5C 462.729,554.883 461.229,555.883 459.5,556.5C 463.089,550.99 466.422,545.323 469.5,539.5 Z"/></g>
<g><path style="opacity:1" fill="#3acece" d="M 607.5,567.5 C 596.212,576.828 583.212,582.495 568.5,584.5C 554.359,585.42 540.692,583.42 527.5,578.5C 525.249,577.589 523.249,576.256 521.5,574.5C 521.5,573.833 521.5,573.167 521.5,572.5C 530.489,578.979 540.489,581.479 551.5,580C 551.957,579.586 552.291,579.086 552.5,578.5C 550.535,577.708 548.535,577.041 546.5,576.5C 544.591,577.348 542.591,577.682 540.5,577.5C 540.729,575.567 541.562,573.9 543,572.5C 543.499,568.514 543.666,564.514 543.5,560.5C 540.635,560.945 538.135,560.278 536,558.5C 533.936,559.591 531.769,559.758 529.5,559C 533.5,557 533.5,555 529.5,553C 530.056,552.617 530.389,552.117 530.5,551.5C 534.47,554.736 538.97,557.069 544,558.5C 544.765,558.43 545.265,558.097 545.5,557.5C 548.096,558.265 550.763,558.599 553.5,558.5C 562.366,560.603 570.699,559.27 578.5,554.5C 591.328,549.671 599.662,540.671 603.5,527.5C 605.068,525.189 605.902,522.522 606,519.5C 606.499,515.179 606.666,510.846 606.5,506.5C 610.184,526.566 602.517,542.733 583.5,555C 585.899,555.711 588.232,555.544 590.5,554.5C 591.123,556.966 591.957,559.299 593,561.5C 593.219,560.062 593.719,558.729 594.5,557.5C 596.22,558.934 598.22,559.767 600.5,560C 598.737,561.602 596.904,562.102 595,561.5C 594.316,562.784 594.483,563.951 595.5,565C 594.324,566.674 592.99,568.174 591.5,569.5C 590.892,571.684 591.559,573.684 593.5,575.5C 596.5,573.333 599.5,571.167 602.5,569C 604.025,567.991 605.692,567.491 607.5,567.5 Z"/></g>
<g><path style="opacity:1" fill="#40d5ca" d="M 765.5,540.5 C 780.79,539.266 785.124,545.433 778.5,559C 766.278,563.778 760.445,559.612 761,546.5C 762.332,544.34 763.832,542.34 765.5,540.5 Z"/></g>
<g><path style="opacity:1" fill="#40d6ca" d="M 833.5,554.5 C 838.865,560.815 839.865,567.815 836.5,575.5C 830.526,580.028 823.859,581.362 816.5,579.5C 814.077,576.751 812.077,573.751 810.5,570.5C 810.111,553.91 817.778,548.577 833.5,554.5 Z"/></g>
<g><path style="opacity:1" fill="#34cdd2" d="M 530.5,551.5 C 530.389,552.117 530.056,552.617 529.5,553C 533.5,555 533.5,557 529.5,559C 531.769,559.758 533.936,559.591 536,558.5C 538.135,560.278 540.635,560.945 543.5,560.5C 543.666,564.514 543.499,568.514 543,572.5C 541.562,573.9 540.729,575.567 540.5,577.5C 542.591,577.682 544.591,577.348 546.5,576.5C 548.535,577.041 550.535,577.708 552.5,578.5C 552.291,579.086 551.957,579.586 551.5,580C 540.489,581.479 530.489,578.979 521.5,572.5C 513.934,568.103 507.434,562.437 502,555.5C 501.217,553.681 501.717,552.348 503.5,551.5C 507.759,554.698 509.592,553.698 509,548.5C 506.09,547.55 504.923,545.55 505.5,542.5C 511.063,544.046 515.897,547.046 520,551.5C 521.216,549.038 521.882,546.371 522,543.5C 524.703,546.371 527.536,549.038 530.5,551.5 Z"/></g>
<g><path style="opacity:1" fill="#d4fcfc" d="M 578.5,554.5 C 570.699,559.27 562.366,560.603 553.5,558.5C 557.514,558.666 561.514,558.499 565.5,558C 569.743,556.623 574.076,555.456 578.5,554.5 Z"/></g>
<g><path style="opacity:1" fill="#e2fefd" d="M 833.5,554.5 C 837.29,555.698 839.456,558.365 840,562.5C 840.461,567.184 840.295,571.851 839.5,576.5C 838.448,576.351 837.448,576.517 836.5,577C 834.777,580.808 831.777,582.475 827.5,582C 823.217,583.187 819.55,582.353 816.5,579.5C 823.859,581.362 830.526,580.028 836.5,575.5C 839.865,567.815 838.865,560.815 833.5,554.5 Z"/></g>
<g><path style="opacity:1" fill="#d9fcfb" d="M 800.5,591.5 C 802.807,590.023 804.64,588.023 806,585.5C 808.393,570.559 802.226,564.392 787.5,567C 786.619,567.708 785.953,568.542 785.5,569.5C 784.833,569.5 784.5,569.833 784.5,570.5C 783.833,570.833 783.167,571.167 782.5,571.5C 782.5,569.833 782.5,568.167 782.5,566.5C 789.038,564.162 795.705,563.995 802.5,566C 808.503,572.443 810.003,579.943 807,588.5C 805.13,590.219 802.963,591.219 800.5,591.5 Z"/></g>
<g><path style="opacity:1" fill="#3ad9cd" d="M 784.5,570.5 C 784.5,569.833 784.833,569.5 785.5,569.5C 785.56,570.043 785.893,570.376 786.5,570.5C 787.963,568.435 789.963,567.435 792.5,567.5C 795.684,569.889 799.351,571.222 803.5,571.5C 808.081,584.747 803.414,590.913 789.5,590C 787.751,588.708 785.918,587.542 784,586.5C 781.855,581.004 782.022,575.671 784.5,570.5 Z"/></g>
<g><path style="opacity:1" fill="#3ed5cc" d="M 735.5,579.5 C 722.89,584.231 717.89,579.898 720.5,566.5C 726.695,561.962 732.195,562.629 737,568.5C 737.758,572.357 737.258,576.023 735.5,579.5 Z"/></g>
<g><path style="opacity:1" fill="#dafdfc" d="M 720.5,566.5 C 717.89,579.898 722.89,584.231 735.5,579.5C 734.859,580.482 734.193,581.482 733.5,582.5C 723.957,585.455 718.957,581.955 718.5,572C 718.547,569.705 719.213,567.871 720.5,566.5 Z"/></g>
<g><path style="opacity:1" fill="#70b5dd" d="M 232.5,580.5 C 242.653,581.494 252.986,581.828 263.5,581.5C 252.993,582.823 242.326,582.823 231.5,581.5C 231.624,580.893 231.957,580.56 232.5,580.5 Z"/></g>
<g><path style="opacity:1" fill="#d3fdfd" d="M 527.5,578.5 C 540.692,583.42 554.359,585.42 568.5,584.5C 560.344,585.657 552.01,585.823 543.5,585C 537.379,584.251 532.046,582.084 527.5,578.5 Z"/></g>
<g><path style="opacity:1" fill="#54c9c2" d="M 771.5,585.5 C 769.681,588.655 767.015,590.655 763.5,591.5C 761.393,592.468 759.059,592.802 756.5,592.5C 753.325,592.16 751.159,590.493 750,587.5C 747.98,571.098 754.48,566.265 769.5,573C 770.756,577.039 771.423,581.206 771.5,585.5 Z"/></g>
<g><path style="opacity:1" fill="#3ad8cd" d="M 763.5,591.5 C 753.514,591.411 749.348,586.411 751,576.5C 756.341,570.219 762.008,569.886 768,575.5C 769.368,578.738 769.701,582.072 769,585.5C 767.275,587.609 765.442,589.609 763.5,591.5 Z"/></g>
<g><path style="opacity:1" fill="#e2fefe" d="M 346.5,442.5 C 346.5,489.167 346.5,535.833 346.5,582.5C 367.836,582.667 389.169,582.5 410.5,582C 412.382,581.802 414.048,581.302 415.5,580.5C 423.985,579.782 431.985,577.449 439.5,573.5C 437.195,576.132 434.528,578.465 431.5,580.5C 430.914,580.291 430.414,579.957 430,579.5C 422.944,581.404 415.778,582.904 408.5,584C 388.302,584.184 368.136,584.684 348,585.5C 347.228,585.355 346.561,585.022 346,584.5C 345.168,536.998 345.335,489.665 346.5,442.5 Z"/></g>
<g><path style="opacity:1" fill="#56cbc1" d="M 800.5,591.5 C 784.236,593.907 778.236,587.241 782.5,571.5C 783.167,571.167 783.833,570.833 784.5,570.5C 782.022,575.671 781.855,581.004 784,586.5C 785.918,587.542 787.751,588.708 789.5,590C 803.414,590.913 808.081,584.747 803.5,571.5C 799.351,571.222 795.684,569.889 792.5,567.5C 789.963,567.435 787.963,568.435 786.5,570.5C 785.893,570.376 785.56,570.043 785.5,569.5C 785.953,568.542 786.619,567.708 787.5,567C 802.226,564.392 808.393,570.559 806,585.5C 804.64,588.023 802.807,590.023 800.5,591.5 Z"/></g>
<g><path style="opacity:1" fill="#c2fbf9" d="M 771.5,585.5 C 770.194,591.112 766.527,593.778 760.5,593.5C 758.955,593.489 757.622,593.156 756.5,592.5C 759.059,592.802 761.393,592.468 763.5,591.5C 767.015,590.655 769.681,588.655 771.5,585.5 Z"/></g>
</svg>
