<?xml version="1.0" encoding="UTF-8"?>
<svg version="1.1" xmlns="http://www.w3.org/2000/svg" width="819" height="819">
<path d="M0 0 C1.25968597 0.00182281 2.51937195 0.00364563 3.81723022 0.00552368 C22.06639007 0.05000591 39.94903803 0.42693605 58 3.3125 C59.12857422 3.48410645 60.25714844 3.65571289 61.41992188 3.83251953 C117.16883895 12.45372437 171.33381761 32.00384107 219 62.3125 C219.9895166 62.93970947 219.9895166 62.93970947 220.99902344 63.57958984 C238.79676766 74.94909997 255.83056078 87.72677798 271.41796875 101.9765625 C272.82446183 103.24900254 274.23708262 104.5152703 275.6784668 105.74804688 C281.34459804 110.60410918 286.66194529 115.78828208 291.93579102 121.06298828 C293.42641615 122.55143237 294.92487017 124.03167277 296.42382812 125.51171875 C302.00951668 131.06569104 307.18077119 136.74886893 312.07763672 142.92871094 C313.86758052 145.14829581 315.73400802 147.2369669 317.6875 149.3125 C365.86734806 202.97388766 395.19423938 277.34653922 406.25 347.6875 C406.40114258 348.6472876 406.55228516 349.6070752 406.70800781 350.59594727 C407.18599221 353.83043425 407.60423862 357.06686333 408 360.3125 C408.08720306 361.02168579 408.17440613 361.73087158 408.26425171 362.46154785 C410.12481357 378.0736528 410.35964539 393.60352796 410.3125 409.3125 C410.30976578 411.20202896 410.30976578 411.20202896 410.30697632 413.12973022 C410.26249409 431.37889007 409.88556395 449.26153803 407 467.3125 C406.74259033 469.00536133 406.74259033 469.00536133 406.47998047 470.73242188 C397.85877563 526.48133895 378.30865893 580.64631761 348 628.3125 C347.58186035 628.97217773 347.1637207 629.63185547 346.73291016 630.31152344 C335.36340003 648.10926766 322.58572202 665.14306078 308.3359375 680.73046875 C307.06349746 682.13696183 305.7972297 683.54958262 304.56445312 684.9909668 C299.70839082 690.65709804 294.52421792 695.97444529 289.24951172 701.24829102 C287.76106763 702.73891615 286.28082723 704.23737017 284.80078125 705.73632812 C279.24680896 711.32201668 273.56363107 716.49327119 267.38378906 721.39013672 C265.16420419 723.18008052 263.0755331 725.04650802 261 727 C207.33861234 775.17984806 132.96596078 804.50673938 62.625 815.5625 C61.6652124 815.71364258 60.7054248 815.86478516 59.71655273 816.02050781 C56.48206575 816.49849221 53.24563667 816.91673862 50 817.3125 C49.29081421 817.39970306 48.58162842 817.48690613 47.85095215 817.57675171 C32.2388472 819.43731357 16.70897204 819.67214539 1 819.625 C-0.25968597 819.62317719 -1.51937195 819.62135437 -2.81723022 819.61947632 C-21.06639007 819.57499409 -38.94903803 819.19806395 -57 816.3125 C-58.69286133 816.05509033 -58.69286133 816.05509033 -60.41992188 815.79248047 C-116.16883895 807.17127563 -170.33381761 787.62115893 -218 757.3125 C-218.65967773 756.89436035 -219.31935547 756.4762207 -219.99902344 756.04541016 C-237.79676766 744.67590003 -254.83056078 731.89822202 -270.41796875 717.6484375 C-271.82446183 716.37599746 -273.23708262 715.1097297 -274.6784668 713.87695312 C-280.34459804 709.02089082 -285.66194529 703.83671792 -290.93579102 698.56201172 C-292.42641615 697.07356763 -293.92487017 695.59332723 -295.42382812 694.11328125 C-301.00951668 688.55930896 -306.18077119 682.87613107 -311.07763672 676.69628906 C-312.86758052 674.47670419 -314.73400802 672.3880331 -316.6875 670.3125 C-364.86734806 616.65111234 -394.19423938 542.27846078 -405.25 471.9375 C-405.47671387 470.4978186 -405.47671387 470.4978186 -405.70800781 469.02905273 C-406.18599221 465.79456575 -406.60423862 462.55813667 -407 459.3125 C-407.08720306 458.60331421 -407.17440613 457.89412842 -407.26425171 457.16345215 C-409.12481357 441.5513472 -409.35964539 426.02147204 -409.3125 410.3125 C-409.31067719 409.05281403 -409.30885437 407.79312805 -409.30697632 406.49526978 C-409.26249409 388.24610993 -408.88556395 370.36346197 -406 352.3125 C-405.82839355 351.18392578 -405.65678711 350.05535156 -405.47998047 348.89257812 C-396.85877563 293.14366105 -377.30865893 238.97868239 -347 191.3125 C-346.58186035 190.65282227 -346.1637207 189.99314453 -345.73291016 189.31347656 C-334.36340003 171.51573234 -321.58572202 154.48193922 -307.3359375 138.89453125 C-306.06349746 137.48803817 -304.7972297 136.07541738 -303.56445312 134.6340332 C-298.70839082 128.96790196 -293.52421792 123.65055471 -288.24951172 118.37670898 C-286.76106763 116.88608385 -285.28082723 115.38762983 -283.80078125 113.88867188 C-278.24680896 108.30298332 -272.56363107 103.13172881 -266.38378906 98.23486328 C-264.16420419 96.44491948 -262.0755331 94.57849198 -260 92.625 C-206.33861234 44.44515194 -131.96596078 15.11826062 -61.625 4.0625 C-60.1853186 3.83578613 -60.1853186 3.83578613 -58.71655273 3.60449219 C-55.48206575 3.12650779 -52.24563667 2.70826138 -49 2.3125 C-48.29081421 2.22529694 -47.58162842 2.13809387 -46.85095215 2.04824829 C-31.2388472 0.18768643 -15.70897204 -0.04714539 0 0 Z " fill="#FEFEFE" transform="translate(409,-0.3125)"/>
<path d="M0 0 C1.57977396 1.33397445 3.14314313 2.68767802 4.6875 4.0625 C5.40808594 4.70058594 6.12867188 5.33867187 6.87109375 5.99609375 C11.96183729 10.77889061 15.38192942 15.94107299 18.6875 22.0625 C19.12964844 22.79726563 19.57179688 23.53203125 20.02734375 24.2890625 C29.14613916 40.42018387 29.58421851 60.03032462 25.078125 77.58984375 C19.69344482 96.23128505 5.83590994 112.15070663 -10.95703125 121.4921875 C-28.96677833 129.92049754 -50.69273565 132.3275283 -69.8125 126.39453125 C-90.33865789 118.58267875 -105.40684367 105.48652665 -114.95703125 85.515625 C-122.36666547 66.63920814 -122.54354809 46.53631476 -114.58203125 27.8515625 C-110.71881714 19.3712641 -106.07582965 12.55302308 -99.3125 6.0625 C-98.57644531 5.29550781 -97.84039062 4.52851563 -97.08203125 3.73828125 C-71.39897927 -21.60060923 -27.73168853 -21.45202046 0 0 Z " fill="#35CED1" transform="translate(504.3125,353.9375)"/>
<path d="M0 0 C86.65212855 0 86.65212855 0 108.68359375 20.65234375 C112.18418872 24.20016428 115.20607367 27.874325 118 32 C118.53496094 32.78503906 119.06992187 33.57007813 119.62109375 34.37890625 C129.05153258 49.78274025 130.54873772 70.41634165 126.5 87.75 C122.24663493 101.51786114 115.2283649 112.00480451 105 122 C104.16082031 122.88751953 104.16082031 122.88751953 103.3046875 123.79296875 C78.01890177 148.48301608 26.71682796 140 0 140 C0 93.8 0 47.6 0 0 Z " fill="#30B7D7" transform="translate(245,341)"/>
<path d="M0 0 C0.97259766 0.38285156 0.97259766 0.38285156 1.96484375 0.7734375 C13.14738493 5.60075231 22.11532488 16.04794849 27.1875 26.953125 C31.33093338 37.39138986 31.59415454 50.35644089 28 61 C21.96799217 74.02504742 11.94784916 83.62177955 -1.375 88.8125 C-13.19767664 92.6854458 -25.6673814 92.31167242 -37 87 C-48.70293405 81.06190291 -57.07990034 71.32361324 -61.74609375 59.03515625 C-65.68193383 44.89327569 -63.19496333 31.28077223 -56.1875 18.75 C-49.47119705 8.13824134 -40.04426834 1.36175361 -28 -2 C-19.38990948 -4.87003017 -8.14599465 -3.78500761 0 0 Z " fill="#FBFEFE" transform="translate(475,367)"/>
<path d="M0 0 C35.31 0 70.62 0 107 0 C107 8.463284 106.96964815 11.44763115 103 18 C102.16274506 19.47491148 101.33086607 20.95288541 100.50390625 22.43359375 C100.08254395 23.18495605 99.66118164 23.93631836 99.22705078 24.71044922 C97.24899606 28.40129624 95.59281156 32.21862773 93.9375 36.0625 C90.5439612 43.87603909 86.84566796 51.48783461 82.97802734 59.07617188 C81.40642998 62.16758156 79.86036026 65.27165654 78.3125 68.375 C75.86806826 73.27066387 73.41599853 78.16239977 70.95703125 83.05078125 C64.13758648 96.62390464 57.44513668 110.24498917 51 124 C50.67354492 124.69561035 50.34708984 125.3912207 50.01074219 126.10791016 C46.73278837 132.94299336 46.73278837 132.94299336 44 140 C33.44 140 22.88 140 12 140 C13.4758263 134.83460795 14.99885492 130.65720244 17.4375 126 C20.92058079 119.20424195 24.23434126 112.34019726 27.5 105.4375 C30.63207282 98.83635238 33.82148721 92.2942062 37.3125 85.875 C40.14901431 80.6590898 42.73143954 75.37978589 45.17578125 69.96875 C48.14582939 63.44271393 51.30652642 57.00436438 54.42285156 50.54736328 C58.35089989 42.39439433 62.17194831 34.20296792 66 26 C44.22 26 22.44 26 0 26 C0 17.42 0 8.84 0 0 Z " fill="#139CE6" transform="translate(118,341)"/>
<path d="M0 0 C36.96 0 73.92 0 112 0 C112 7.92 112 15.84 112 24 C98.14 24 84.28 24 70 24 C70 62.28 70 100.56 70 140 C60.76 140 51.52 140 42 140 C42 101.72 42 63.44 42 24 C28.14 24 14.28 24 0 24 C0 16.08 0 8.16 0 0 Z " fill="#3BD4CB" transform="translate(535,341)"/>
<path d="M0 0 C45.12195122 0 45.12195122 0 57.8125 11.5625 C67.3833501 22.22716154 70.71347994 32.63818069 70.30859375 46.8984375 C69.61957544 59.15209916 64.05620117 70.61523428 55.0625 78.9375 C38.71424565 92.13580168 21.62925007 89 0 89 C0 59.63 0 30.26 0 0 Z " fill="#FCFEFE" transform="translate(274,367)"/>
<path d="M0 0 C16.5 0 33 0 50 0 C50 46.2 50 92.4 50 140 C40.43 140 30.86 140 21 140 C21 102.38 21 64.76 21 26 C14.07 26 7.14 26 0 26 C0 17.42 0 8.84 0 0 Z " fill="#0F93E9" transform="translate(41,341)"/>
<path d="M0 0 C16.5 0 33 0 50 0 C50 46.2 50 92.4 50 140 C40.43 140 30.86 140 21 140 C21 102.38 21 64.76 21 26 C14.07 26 7.14 26 0 26 C0 17.42 0 8.84 0 0 Z M2 2 C2 9.26 2 16.52 2 24 C8.27 24 14.54 24 21 24 C21.94683976 26.84051929 22.13491176 28.62812968 22.15821838 31.57475281 C22.1680072 32.5128479 22.17779602 33.45094299 22.18788147 34.41746521 C22.19651466 35.95818443 22.19651466 35.95818443 22.20532227 37.5300293 C22.21522186 38.61311371 22.22512146 39.69619812 22.23532104 40.81210327 C22.26696055 44.3994527 22.29170326 47.98681539 22.31640625 51.57421875 C22.33697365 54.05858203 22.35797007 56.5429418 22.37937927 59.02729797 C22.42897268 64.90268324 22.47423231 70.77808945 22.51740164 76.65352517 C22.57163583 83.99887146 22.63258212 91.3441583 22.69335938 98.68945312 C22.80096788 111.79293084 22.90189921 124.89644765 23 138 C31.25 138 39.5 138 48 138 C48 93.12 48 48.24 48 2 C32.82 2 17.64 2 2 2 Z " fill="#2188CF" transform="translate(41,341)"/>
<path d="M0 0 C4.33321695 2.21786158 6.88710198 4.94956244 8.94140625 9.3046875 C9.83426447 14.95607418 9.18734693 19.49174097 5.94140625 24.3046875 C3.56840106 27.21353257 1.87834094 28.17572739 -1.83984375 28.6875 C-6.70969711 28.86831139 -10.17773668 28.72193559 -14.62109375 26.6171875 C-18.80588545 22.64700051 -20.87215203 18.77504034 -21.30859375 12.9921875 C-20.9404587 7.56219558 -19.48154999 4.62352499 -15.49609375 0.9296875 C-10.37235159 -1.49244516 -5.42232247 -1.83144858 0 0 Z " fill="#3BD8CD" transform="translate(772.05859375,394.6953125)"/>
<path d="M0 0 C3.55236142 2.89451672 4.77316403 5.27457005 5.30859375 9.85546875 C5.61136403 15.33285838 4.80709197 18.51269856 1.0625 22.75 C-2.90047743 26.17257142 -5.86357864 27.36900774 -10.98828125 27.06640625 C-17.23883992 26.05178651 -20.35086836 22.56633392 -23.9375 17.75 C-25.53839019 14.54821961 -25.2948266 11.23231013 -24.9375 7.75 C-23.22461789 3.06211213 -21.09953443 0.49085194 -16.9375 -2.25 C-11.10623731 -4.14154595 -5.10329592 -3.39507972 0 0 Z " fill="#3BD9CD" transform="translate(758.9375,428.25)"/>
<path d="M0 0 C1.65515625 0.00193359 1.65515625 0.00193359 3.34375 0.00390625 C6.85217137 0.48587998 8.70938228 1.27890371 11.5 3.4375 C14.36500034 7.49491668 15.89861024 11.78201793 15.3125 16.75 C15.044375 17.966875 14.77625 19.18375 14.5 20.4375 C14.4071875 21.55125 14.4071875 21.55125 14.3125 22.6875 C12.92027323 25.68614227 10.27914598 26.82559533 7.5 28.4375 C2.45195496 30.12018168 -1.82083946 29.99962419 -6.6875 27.875 C-10.82259485 25.57861723 -13.08993329 22.96922382 -14.5 18.4375 C-15.14335634 14.12627302 -15.01485572 10.65689514 -13.3125 6.625 C-9.29952275 1.78175159 -6.36973252 -0.11161914 0 0 Z " fill="#3AD7CE" transform="translate(768.5,357.5625)"/>
<path d="M0 0 C4.42977671 2.1357852 7.19613671 4.39012714 9 9 C9.68031111 14.01414487 9.55368338 17.82874671 7.375 22.4375 C4.2857997 25.77058454 1.60891548 27.67708905 -2.98828125 28.24609375 C-7.07398942 28.37689797 -10.45981537 28.0651077 -14 26 C-18.1208707 21.53572341 -19.31570549 18.16633256 -19.21484375 12.05859375 C-18.76267517 7.72599661 -16.7400372 4.87879417 -14 1.625 C-9.41056927 -0.86094164 -5.10446385 -0.74205862 0 0 Z " fill="#3BD8CC" transform="translate(728,451)"/>
<path d="M0 0 C4.02690599 3.63403711 5.41651322 5.77963885 5.9375 11.25 C5.73823643 16.0504406 4.15455547 19.53674582 0.9375 23.125 C-4.13380141 25.66065071 -8.86625489 25.7761461 -14.25 24.1875 C-18.43970877 21.72296543 -20.72958016 19.83147857 -22.07421875 15.046875 C-23.04923927 9.21464215 -22.21705127 5.70354828 -18.95703125 0.80859375 C-14.38881167 -3.68916486 -5.22020651 -2.56264683 0 0 Z " fill="#3DD1CC" transform="translate(767.4375,326.6875)"/>
<path d="M0 0 C4.06402849 1.47979723 6.56800564 3.35200846 9 7 C9.76968269 12.80760573 9.54186194 18.15945535 6 23 C1.76510314 26.09870502 -2.3967106 26.63158491 -7.5234375 26.4921875 C-11.67700671 25.66671475 -14.40268255 23.26451827 -17 20 C-18.54157141 15.37528578 -18.48317796 10.93271184 -17.3125 6.25 C-13.21162363 -0.78007377 -7.50958077 -1.08507533 0 0 Z " fill="#3CD6CC" transform="translate(740,374)"/>
<path d="M0 0 C3.66259764 3.66259764 4.43669856 5.92322417 4.5 11 C4.42582119 14.83875317 4.29025612 16.80719977 2.5 20.25 C-1.65711694 23.53193442 -5.22301076 24.34834409 -10.4375 24.0625 C-14.93553792 23.44809684 -17.01796529 21.69629339 -19.875 18.125 C-20.205 17.795 -20.535 17.465 -20.875 17.125 C-21.48191541 12.25431174 -21.98191659 7.26311577 -19.67578125 2.80859375 C-14.34366768 -3.62486318 -7.14087624 -4.6570932 0 0 Z " fill="#3CD6CB" transform="translate(700.875,466.875)"/>
<path d="M0 0 C3.24048267 2.78832229 5.3329898 4.8900136 5.96875 9.234375 C6.17062927 13.70936546 5.602375 16.72496154 2.6875 20.3125 C2.0275 20.3125 1.3675 20.3125 0.6875 20.3125 C0.6875 20.9725 0.6875 21.6325 0.6875 22.3125 C-2.08302181 23.23600727 -3.87938758 23.47579585 -6.75 23.5 C-7.51183594 23.51417969 -8.27367187 23.52835937 -9.05859375 23.54296875 C-11.54597315 23.28862666 -13.16058106 22.55267196 -15.3125 21.3125 C-15.3125 20.6525 -15.3125 19.9925 -15.3125 19.3125 C-15.9725 19.3125 -16.6325 19.3125 -17.3125 19.3125 C-19.6547036 14.77448053 -20.05677326 10.31365325 -19.3125 5.3125 C-14.87430537 -2.1373267 -7.65850092 -3.90150047 0 0 Z " fill="#3AD4CD" transform="translate(737.3125,342.6875)"/>
<path d="M0 0 C3.26825766 3.92190919 3.89127067 6.95794388 3.5 12 C1.99094926 16.28888105 0.35556082 18.63931451 -3.5 21 C-8.59070736 21.84212894 -13.0868961 21.8363268 -17.5625 19.1875 C-21.41698825 14.83565843 -21.99392403 12.15627205 -21.88671875 6.515625 C-21.2501166 2.37449586 -19.61175228 0.75814407 -16.5 -2 C-11.08174918 -3.88412426 -4.73475963 -3.31661906 0 0 Z " fill="#3BD8CD" transform="translate(733.5,409)"/>
<path d="M0 0 C3.75212276 2.01502889 5.63644095 3.45466142 8 7 C8.69920885 11.79689791 8.71482085 15.77459282 6.25 20 C2.23920645 23.56514982 -0.51546659 24.47677051 -6.0390625 24.3125 C-9.27136709 23.7973917 -10.81850075 22.3684849 -13 20 C-15.58700079 15.89648151 -16.61807113 12.84155722 -16 8 C-12.91874426 1.02663175 -7.44135713 -1.33973553 0 0 Z " fill="#39D9CD" transform="translate(706,428)"/>
<path d="M0 0 C3.48455497 2.07413986 7.15466479 4.30932958 9 8 C9.34717992 13.29449372 9.52421718 16.74663444 6 21 C2.43663003 23.95250655 -0.58385262 24.47965422 -5.07421875 24.28515625 C-9.12567833 23.68524439 -11.30321646 21.86497267 -13.8125 18.75 C-15.33107326 15.23330403 -15.40718483 12.80039173 -15 9 C-13.48007896 5.81540354 -11.71704041 3.26420034 -9 1 C-5.53713634 -0.15428789 -3.63824182 -0.4805225 0 0 Z " fill="#38CBD2" transform="translate(741,299)"/>
<path d="M0 0 C3.82294492 2.38274279 6.56242161 4.68726484 8 9 C8.66611433 14.88400994 8.66611433 14.88400994 6.953125 17.75390625 C4.59685648 20.62993989 2.78969204 22.78551824 -0.98828125 23.23828125 C-5.01006012 23.3667078 -7.3801072 23.35610863 -10.9375 21.3125 C-13.62117548 18.30353053 -14.92507613 16.16838489 -15.06640625 12.078125 C-14.8132602 7.99710378 -14.25017796 6.30149652 -11.5625 3.0625 C-7.53883801 -0.17605721 -5.19707778 -0.59638597 0 0 Z " fill="#3FD6CC" transform="translate(662,468)"/>
<path d="M0 0 C3.09472253 2.06314835 4.53198408 3.5722885 5.6953125 7.12109375 C6.3044715 10.40501453 6.60057773 12.86714554 5.00390625 15.87890625 C3.23698837 18.05478435 1.51813671 19.74093165 -1 21 C-9.87635575 21.42950108 -9.87635575 21.42950108 -13 19 C-15.82755625 15.56653884 -16.58171741 12.45954395 -16.4296875 8 C-15.65395507 4.38931815 -13.60947818 2.54734775 -11 0 C-7.47357222 -1.76321389 -3.73351659 -0.91564656 0 0 Z " fill="#37C2D4" transform="translate(715,284)"/>
<path d="M0 0 C0.66 0 1.32 0 2 0 C2 7.92 2 15.84 2 24 C15.86 24 29.72 24 44 24 C44 62.28 44 100.56 44 140 C43.34 140 42.68 140 42 140 C42 102.38 42 64.76 42 26 C28.47 26 14.94 26 1 26 C-0.30475618 23.39048764 -0.11301572 21.47298715 -0.09765625 18.5546875 C-0.09443359 17.47832031 -0.09121094 16.40195312 -0.08789062 15.29296875 C-0.07951172 14.16503906 -0.07113281 13.03710938 -0.0625 11.875 C-0.05798828 10.73933594 -0.05347656 9.60367187 -0.04882812 8.43359375 C-0.03701615 5.62234362 -0.02054507 2.8111977 0 0 Z " fill="#C9FDFB" transform="translate(533,341)"/>
<path d="M0 0 C4.37758112 2.34513274 4.37758112 2.34513274 6 5 C6.79702825 8.49774987 6.74790526 11.4963515 6 15 C3.95826016 18.22726621 2.50126102 19.5439207 -1.16015625 20.65625 C-5.25595782 21.36737415 -7.29812958 21.41813557 -10.9375 19.25 C-13.61263976 16.33166571 -14.92359293 14.67492915 -15.375 10.6875 C-14.93464386 6.3573313 -13.76544381 4.31853257 -11 1 C-7.25049967 -0.24983344 -3.88692703 -0.61488111 0 0 Z " fill="#3AD8CD" transform="translate(674,439)"/>
<path d="M0 0 C2.87472735 1.24988145 4.44101438 2.25468584 6.3125 4.75 C7.31516165 8.03143813 7.35356638 10.58219169 7 14 C3.94736842 19.68421053 3.94736842 19.68421053 0 21 C-7.1242236 21.68944099 -7.1242236 21.68944099 -10.9375 18.6875 C-14.15321506 14.49732582 -14.44779299 11.19439869 -14 6 C-10.1886908 0.15599256 -6.81213505 -0.73220645 0 0 Z " fill="#39CECD" transform="translate(714,319)"/>
<path d="M0 0 C35.31 0 70.62 0 107 0 C107 11.25 107 11.25 104.5 15.125 C104.0359375 15.87007813 103.571875 16.61515625 103.09375 17.3828125 C102.7328125 17.91648437 102.371875 18.45015625 102 19 C101 16 101 16 102.375 12.75 C102.65085937 12.20859375 102.92671875 11.6671875 103.2109375 11.109375 C104.35982359 8.26777207 104.35982359 8.26777207 105 2 C70.68 2 36.36 2 1 2 C1 9.59 1 17.18 1 25 C22.12 25 43.24 25 65 25 C65 25.33 65 25.66 65 26 C43.55 26 22.1 26 0 26 C0 17.42 0 8.84 0 0 Z " fill="#2589C3" transform="translate(118,341)"/>
<path d="M0 0 C2.69990662 1.79993774 4.5418865 3.083773 6 6 C6.12243863 10.53022942 5.81830145 13.98332245 2.9375 17.5625 C-0.87320137 19.42731131 -3.84058254 19.94760922 -8 19 C-10.97717008 17.01521994 -12.62826444 15.63168881 -13.44140625 12.0625 C-13.66451615 8.2624346 -13.21917673 6.35521746 -11.1875 3.0625 C-7.73246628 -0.19510322 -4.60627264 -0.46062726 0 0 Z " fill="#39B7D0" transform="translate(682,278)"/>
<path d="M0 0 C0.66 0 1.32 0 2 0 C2.82481814 3.60621021 3.12914844 6.94075998 3.14044189 10.63700867 C3.14615204 11.76007416 3.15186218 12.88313965 3.15774536 14.04023743 C3.15886322 15.26276718 3.15998108 16.48529694 3.16113281 17.74487305 C3.16609772 19.03961548 3.17106262 20.33435791 3.17617798 21.66833496 C3.18925859 25.21144811 3.19573729 28.75454235 3.20018864 32.29767585 C3.20312364 34.51069183 3.20722904 36.72370269 3.21169281 38.93671608 C3.22535023 45.8597167 3.23502803 52.78270554 3.2388947 59.7057187 C3.24338498 67.70084437 3.26098486 75.69579989 3.2898953 83.6908738 C3.31147234 89.87185001 3.32159668 96.05277816 3.32293582 102.23379165 C3.32398581 105.92603056 3.32993573 109.61810914 3.34775543 113.31030846 C3.36721398 117.4214155 3.3629632 121.53216269 3.35644531 125.64331055 C3.3656601 126.87191299 3.37487488 128.10051544 3.3843689 129.36634827 C3.37601517 131.03825729 3.37601517 131.03825729 3.36749268 132.74394226 C3.36895924 133.71639232 3.3704258 134.68884237 3.3719368 135.69076061 C3.24919765 136.45280961 3.12645851 137.21485861 3 138 C1.515 138.99 1.515 138.99 0 140 C0 93.8 0 47.6 0 0 Z " fill="#DDFCFE" transform="translate(91,341)"/>
<path d="M0 0 C3.34265205 1.20706879 3.94704566 1.92056849 6 5 C6.30398272 9.17976235 6.46736434 12.49374541 4 16 C0.28177773 18.47881485 -2.69432661 18.52084759 -7 18 C-9.4375 17.0625 -9.4375 17.0625 -11 15 C-11.89798468 11.9538951 -12.25022004 9.16945387 -12 6 C-8.72583762 0.58069676 -6.17070122 -0.37024207 0 0 Z " fill="#39D7CD" transform="translate(630,462)"/>
<path d="M0 0 C2.93329427 2.2956216 4.68950124 3.78905483 5.625 7.4375 C4.72232737 11.13845779 3.07407926 13.79372302 0 16 C-3.01078152 16.7263364 -4.82900094 16.46030632 -8 16 C-10 14.625 -10 14.625 -11 13 C-11 12.34 -11 11.68 -11 11 C-11.66 11 -12.32 11 -13 11 C-13.31428571 4.08571429 -13.31428571 4.08571429 -11 1 C-7.10588072 -1.27156958 -4.27287402 -1.33527313 0 0 Z " fill="#48D2C9" transform="translate(642,433)"/>
<path d="M0 0 C0.33 0.66 0.66 1.32 1 2 C0.3203125 3.93359375 0.3203125 3.93359375 -0.875 6.4375 C-1.33390625 7.40945313 -1.7928125 8.38140625 -2.265625 9.3828125 C-2.53439453 9.94258789 -2.80316406 10.50236328 -3.08007812 11.07910156 C-4.14150858 13.29548554 -5.18826116 15.51853405 -6.234375 17.7421875 C-7.79051375 21.0447589 -9.34866757 24.34633581 -10.9140625 27.64453125 C-11.2435791 28.33909424 -11.5730957 29.03365723 -11.91259766 29.74926758 C-13.24777991 32.51286102 -14.62739952 35.25479904 -16 38 C-6.76 38 2.48 38 12 38 C12.99 34.7 13.98 31.4 15 28 C16.235571 25.24710645 17.48129724 22.6020888 18.875 19.9375 C19.22433594 19.25429688 19.57367188 18.57109375 19.93359375 17.8671875 C22.51284934 12.85143954 25.17816754 7.88394079 28 3 C29 6 29 6 27.59375 9.265625 C26.90493975 10.59849563 26.20635771 11.92634503 25.5 13.25 C24.75737618 14.6852998 24.01653312 16.12152217 23.27734375 17.55859375 C22.89819824 18.29190918 22.51905273 19.02522461 22.12841797 19.78076172 C20.36177582 23.25518342 18.70483253 26.77799073 17.0625 30.3125 C16.62164062 31.25367676 16.62164062 31.25367676 16.171875 32.21386719 C14.97618207 34.78800707 13.89860859 37.30417422 13 40 C2.44 40 -8.12 40 -19 40 C-17.49918299 34.74714046 -15.90128092 30.39345271 -13.4375 25.625 C-13.09396484 24.94888672 -12.75042969 24.27277344 -12.39648438 23.57617188 C-8.35913153 15.66817915 -4.18627751 7.82988942 0 0 Z " fill="#3495CD" transform="translate(149,441)"/>
<path d="M0 0 C16.83 0.33 33.66 0.66 51 1 C51 1.66 51 2.32 51 3 C34.5 3 18 3 1 3 C1 11.58 1 20.16 1 29 C-2 26 -2 26 -2.37231445 23.91870117 C-2.3693335 23.13470947 -2.36635254 22.35071777 -2.36328125 21.54296875 C-2.36263672 20.67736328 -2.36199219 19.81175781 -2.36132812 18.91992188 C-2.34521484 18.01822266 -2.32910156 17.11652344 -2.3125 16.1875 C-2.31572266 15.29740234 -2.31894531 14.40730469 -2.32226562 13.49023438 C-2.27961894 8.26020008 -1.73148478 5.19445433 0 0 Z " fill="#E1FEFE" transform="translate(40,338)"/>
<path d="M0 0 C2.375 1.0625 2.375 1.0625 4 3 C4.57491549 6.95254396 4.61372366 9.07941451 2.375 12.4375 C-0.68118452 14.44814771 -2.40649325 14.53520313 -6 14 C-7.875 13 -7.875 13 -9 11 C-9.53967465 7.40216898 -9.68523932 4.21820324 -7.875 1 C-5.08970454 -0.48549091 -3.10747489 -0.38050713 0 0 Z " fill="#39C0CF" transform="translate(682,310)"/>
<path d="M0 0 C1.4082415 4.2247245 -0.4869041 6.70170349 -2.3125 10.5 C-6.49798033 19.62523087 -8.38008847 27.92765557 -8 38 C-7.67 38 -7.34 38 -7 38 C-7.01160156 39.19238281 -7.02320313 40.38476562 -7.03515625 41.61328125 C-7.04453592 43.17968594 -7.05363593 44.74609231 -7.0625 46.3125 C-7.07087891 47.09818359 -7.07925781 47.88386719 -7.08789062 48.69335938 C-7.09272461 49.8293457 -7.09272461 49.8293457 -7.09765625 50.98828125 C-7.10551147 52.03302612 -7.10551147 52.03302612 -7.11352539 53.09887695 C-7.06895991 55.22497968 -7.06895991 55.22497968 -6 58 C-5.34 57.34 -4.68 56.68 -4 56 C-2.875 61.75 -2.875 61.75 -4 64 C-3.71887936 66.00800456 -3.38932033 68.01014051 -3 70 C-5.92621152 66.63903706 -6.95876664 63.39506703 -8.125 59.125 C-8.45757812 57.93132812 -8.79015625 56.73765625 -9.1328125 55.5078125 C-14.10502078 35.39500602 -9.84496201 17.69880811 0 0 Z " fill="#39BCC9" transform="translate(395,372)"/>
<path d="M0 0 C3.75212276 2.01502889 5.63644095 3.45466142 8 7 C8.69920885 11.79689791 8.71482085 15.77459282 6.25 20 C2.23920645 23.56514982 -0.51546659 24.47677051 -6.0390625 24.3125 C-9.27136709 23.7973917 -10.81850075 22.3684849 -13 20 C-15.58700079 15.89648151 -16.61807113 12.84155722 -16 8 C-12.91874426 1.02663175 -7.44135713 -1.33973553 0 0 Z M-15 8 C-14.56680729 13.41490891 -13.43406135 16.75792422 -10 21 C-6.29397865 22.23534045 -3.90246386 22.45528745 0 22 C2.8924221 20.42742099 5.02415289 18.63639424 7 16 C7.76193644 12.44429661 7.86519282 10.40830657 5.9296875 7.2578125 C3.1080851 3.72658554 1.32942465 2.18611945 -3.125 1.5625 C-8.35537909 2.15302667 -11.11891368 4.61287012 -15 8 Z " fill="#4CC9BE" transform="translate(706,428)"/>
<path d="M0 0 C1.11503906 0.01289063 2.23007812 0.02578125 3.37890625 0.0390625 C6.26381635 0.35592363 7.98852599 0.87807212 10.4375 2.375 C6.6875 3.5 6.6875 3.5 4.4375 2.375 C-0.37037157 1.70189798 -3.0237712 2.34004948 -6.875 5.125 C-9.63425382 7.27168863 -11.28558966 9.09715799 -12.5625 12.375 C-12.16530603 17.4061236 -10.23884964 21.89586797 -6.4375 25.25 C-1.01723016 27.37097516 4.85840009 26.81476772 10.4375 25.375 C7.59178122 28.49173962 5.50912831 29.2699384 1.25 29.6875 C-4.01155539 29.25622497 -8.29788237 27.82357817 -11.95703125 23.8671875 C-14.95176334 19.31688786 -15.38427934 14.6965223 -14.5625 9.375 C-11.73510624 2.67854109 -7.16602465 -0.18267966 0 0 Z " fill="#4AC9C2" transform="translate(768.5625,357.625)"/>
<path d="M0 0 C3.09472253 2.06314835 4.53198408 3.5722885 5.6953125 7.12109375 C6.3044715 10.40501453 6.60057773 12.86714554 5.00390625 15.87890625 C3.23698837 18.05478435 1.51813671 19.74093165 -1 21 C-9.87635575 21.42950108 -9.87635575 21.42950108 -13 19 C-15.82755625 15.56653884 -16.58171741 12.45954395 -16.4296875 8 C-15.65395507 4.38931815 -13.60947818 2.54734775 -11 0 C-7.47357222 -1.76321389 -3.73351659 -0.91564656 0 0 Z M-13 5 C-14.55024464 8.10048928 -14.28992015 10.57894218 -14 14 C-12.74612994 17.08817732 -12.74612994 17.08817732 -10 19 C-5.26061361 20.08758307 -2.002811 19.62174282 2.125 17.0625 C4.42963985 13.29825491 4.2941315 11.25363723 3.78515625 6.98828125 C3.15510751 4.81054882 3.15510751 4.81054882 0.93359375 3.73046875 C0.29550781 3.48941406 -0.34257813 3.24835938 -1 3 C-1 2.34 -1 1.68 -1 1 C-6.50384983 0.5683255 -9.05883793 1.05883793 -13 5 Z " fill="#44B2BD" transform="translate(715,284)"/>
<path d="M0 0 C5.84758414 0.64636509 9.1193907 1.65420634 12.94921875 6.25 C14.41155474 10.73614941 14.32314864 14.18725188 12.76171875 18.625 C10.93587171 21.2693302 9.6658736 22.58664466 6.94921875 24.25 C1.85851139 25.09212894 -2.63767735 25.0863268 -7.11328125 22.4375 C-11.0218614 18.02458693 -11.46995706 15.33854297 -11.38671875 9.63671875 C-11.05078125 7.25 -11.05078125 7.25 -9.05078125 4.625 C-8.06078125 3.944375 -8.06078125 3.944375 -7.05078125 3.25 C-7.40140625 4.260625 -7.75203125 5.27125 -8.11328125 6.3125 C-9.21727785 10.23605626 -9.10333569 13.26532961 -8.05078125 17.25 C-6.37207746 19.80162976 -5.15729255 20.9560106 -2.18359375 21.74609375 C1.72919053 22.34408531 5.09940216 22.33276092 8.94921875 21.25 C8.61921875 19.93 8.28921875 18.61 7.94921875 17.25 C8.93921875 16.92 9.92921875 16.59 10.94921875 16.25 C11.24052749 11.29775141 11.17908183 8.14811061 7.94921875 4.25 C3.56871812 1.49654246 -0.17787226 2.42408322 -5.05078125 3.25 C-3.41825629 1.25987434 -2.60638893 0.31773122 0 0 Z " fill="#47C8BC" transform="translate(723.05078125,405.75)"/>
<path d="M0 0 C6.46153846 0.46153846 6.46153846 0.46153846 9 3 C8.8125 6.5 8.8125 6.5 8 10 C4.77856724 12.14762184 3.7404533 12.561068 0 12 C-1.875 10.375 -1.875 10.375 -3 8 C-2.77962372 4.32706204 -2.63033454 2.63033454 0 0 Z " fill="#42A7BC" transform="translate(645,285)"/>
<path d="M0 0 C0.93392578 -0.01224609 1.86785156 -0.02449219 2.83007812 -0.03710938 C10.23364312 -0.05252276 17.14907594 0.84135865 24.1875 3.1875 C24.6825 4.6725 24.6825 4.6725 25.1875 6.1875 C24.37152344 5.9709375 23.55554688 5.754375 22.71484375 5.53125 C5.66309681 1.52344006 -11.17080026 1.7207675 -27.8125 7.1875 C-29.47352175 7.54791038 -31.13872113 7.89194425 -32.8125 8.1875 C-32.8125 7.5275 -32.8125 6.8675 -32.8125 6.1875 C-31.25283782 5.678717 -29.68960759 5.18086531 -28.125 4.6875 C-27.25488281 4.4090625 -26.38476562 4.130625 -25.48828125 3.84375 C-22.81858323 3.18899195 -20.54853316 3.06918505 -17.8125 3.1875 C-17.8125 2.5275 -17.8125 1.8675 -17.8125 1.1875 C-11.85428609 0.15738003 -6.03961597 0.00411698 0 0 Z " fill="#DCFDFE" transform="translate(458.8125,336.8125)"/>
<path d="M0 0 C0.66 0 1.32 0 2 0 C4.81849506 5.54891215 6.5326514 9.741346 6 16 C6.66 16 7.32 16 8 16 C9.73626301 21.88993836 10.21001861 26.77239185 9.75 32.875 C9.6991626 33.65858887 9.6483252 34.44217773 9.59594727 35.24951172 C9.18418373 40.95985085 8.34791507 46.42861772 7 52 C6.34 52 5.68 52 5 52 C5.15855469 50.69933594 5.31710937 49.39867187 5.48046875 48.05859375 C7.31696457 31.35398436 5.52960694 15.86648477 0 0 Z " fill="#E0FDFE" transform="translate(366,378)"/>
<path d="M0 0 C1.134375 0.020625 2.26875 0.04125 3.4375 0.0625 C3.4375 0.7225 3.4375 1.3825 3.4375 2.0625 C1.4575 2.0625 -0.5225 2.0625 -2.5625 2.0625 C-2.5625 2.7225 -2.5625 3.3825 -2.5625 4.0625 C-1.2425 4.3925 0.0775 4.7225 1.4375 5.0625 C1.7675 6.3825 2.0975 7.7025 2.4375 9.0625 C3.0975 7.0825 3.7575 5.1025 4.4375 3.0625 C4.7675 3.7225 5.0975 4.3825 5.4375 5.0625 C6.0975 5.0625 6.7575 5.0625 7.4375 5.0625 C6.89026317 8.43712715 6.3826 10.14485 4.4375 13.0625 C1.1368784 14.07807588 -0.23462881 14.1717904 -3.5625 13.0625 C-6.01027869 8.90127623 -5.53889236 5.67817298 -4.5625 1.0625 C-3.5625 0.0625 -3.5625 0.0625 0 0 Z " fill="#38D9D1" transform="translate(637.5625,433.9375)"/>
<path d="M0 0 C4.41075795 2.36290604 4.41075795 2.36290604 6 5 C6.64906996 8.41700469 6.77643528 11.59933384 6 15 C5.01 15.66 4.02 16.32 3 17 C3.12568359 16.09507812 3.12568359 16.09507812 3.25390625 15.171875 C3.35574219 14.37265625 3.45757813 13.5734375 3.5625 12.75 C3.66691406 11.96109375 3.77132812 11.1721875 3.87890625 10.359375 C4.00325728 7.93653563 3.91090329 6.24988135 3 4 C-0.14930893 2.95023036 -2.38814456 2.89868405 -5.6875 2.9375 C-6.68136719 2.94652344 -7.67523437 2.95554687 -8.69921875 2.96484375 C-9.45847656 2.97644531 -10.21773437 2.98804688 -11 3 C-11.25028811 4.58013217 -11.47440946 6.16442306 -11.6875 7.75 C-11.81511719 8.63171875 -11.94273437 9.5134375 -12.07421875 10.421875 C-11.98330354 13.57998221 -10.99884878 14.63632278 -9 17 C-9 17.66 -9 18.32 -9 19 C-6.69 19.33 -4.38 19.66 -2 20 C-2 20.33 -2 20.66 -2 21 C-5.77312005 21.35098791 -7.53511035 21.30640454 -10.75 19.1875 C-13.65299888 16.36513998 -14.9142818 14.75717741 -15.375 10.6875 C-14.93464386 6.3573313 -13.76544381 4.31853257 -11 1 C-7.25049967 -0.24983344 -3.88692703 -0.61488111 0 0 Z " fill="#47C8BC" transform="translate(674,439)"/>
<path d="M0 0 C-3.0333779 2.02225194 -5.61344489 2.99347524 -9.0625 4.125 C-10.12597656 4.47820312 -11.18945312 4.83140625 -12.28515625 5.1953125 C-15 6 -15 6 -17 6 C-17 6.66 -17 7.32 -17 8 C-18.04800781 8.48919922 -18.04800781 8.48919922 -19.1171875 8.98828125 C-20.02726562 9.42527344 -20.93734375 9.86226563 -21.875 10.3125 C-22.77992188 10.74175781 -23.68484375 11.17101562 -24.6171875 11.61328125 C-27.26449476 12.9199388 -27.26449476 12.9199388 -29 16 C-30.175625 16.680625 -30.175625 16.680625 -31.375 17.375 C-34.31994662 19.19806219 -35.88104882 21.29651057 -38 24 C-38.66 24 -39.32 24 -40 24 C-40.28875 24.598125 -40.5775 25.19625 -40.875 25.8125 C-42 28 -42 28 -44 31 C-44.66 31 -45.32 31 -46 31 C-44.51693061 26.04415323 -41.66063925 23.15747411 -38.0625 19.625 C-37.48056885 19.05136719 -36.8986377 18.47773438 -36.29907227 17.88671875 C-27.05403827 8.99576061 -13.30499269 -0.3595944 0 0 Z " fill="#45BDC2" transform="translate(442,341)"/>
<path d="M0 0 C21.78 0 43.56 0 66 0 C65.1302743 4.34862851 64.0525056 7.16270693 62 11 C61.01879536 7.94736336 61.01879536 6.05263664 62 3 C59.33339943 1.66669971 57.25111257 1.83840541 54.26513672 1.79467773 C53.06404266 1.77473251 51.86294861 1.75478729 50.62545776 1.73423767 C49.32335358 1.71752518 48.02124939 1.70081268 46.6796875 1.68359375 C45.33732462 1.66302375 43.99496821 1.64202727 42.65261841 1.62062073 C39.11811562 1.56540469 35.58355443 1.51599342 32.0489502 1.46777344 C28.44273678 1.41755496 24.83660828 1.36187071 21.23046875 1.30664062 C14.15371951 1.19906483 7.07689416 1.09761858 0 1 C0 0.67 0 0.34 0 0 Z " fill="#CDFCFE" transform="translate(118,367)"/>
<path d="M0 0 C2.76510067 2.37927267 4.28251647 3.95615045 5.6875 7.3125 C5.875 11.125 5.875 11.125 5.6875 14.3125 C5.3575 14.3125 5.0275 14.3125 4.6875 14.3125 C4.52894531 13.62542969 4.37039063 12.93835938 4.20703125 12.23046875 C2.84295354 6.71826722 2.84295354 6.71826722 -0.375 2.1875 C-4.69125667 0.90180652 -8.84386422 1.07822201 -13.3125 1.3125 C-13.6425 2.3025 -13.9725 3.2925 -14.3125 4.3125 C-14.9725 4.3125 -15.6325 4.3125 -16.3125 4.3125 C-17.22707003 9.87407448 -17.63336397 13.988165 -15.3125 19.3125 C-15.9725 19.3125 -16.6325 19.3125 -17.3125 19.3125 C-19.6547036 14.77448053 -20.05677326 10.31365325 -19.3125 5.3125 C-14.87430537 -2.1373267 -7.65850092 -3.90150047 0 0 Z " fill="#49C5BE" transform="translate(737.3125,342.6875)"/>
<path d="M0 0 C2.33996751 1.75497564 2.88364225 3.5690338 3.75 6.3125 C2.1721875 5.3225 2.1721875 5.3225 0.5625 4.3125 C-2.5259216 2.57526285 -4.6614874 1.43961856 -8.25 2.3125 C-10.78838677 4.92139751 -12.09740317 6.85470951 -13.25 10.3125 C-12.59 10.3125 -11.93 10.3125 -11.25 10.3125 C-10.59 11.6325 -9.93 12.9525 -9.25 14.3125 C-7.3628125 14.3434375 -7.3628125 14.3434375 -5.4375 14.375 C-4.72980469 14.38660156 -4.02210938 14.39820313 -3.29296875 14.41015625 C-1.04694539 14.39513217 -1.04694539 14.39513217 1.75 13.3125 C1.75 13.9725 1.75 14.6325 1.75 15.3125 C-1.96822227 17.79131485 -4.94432661 17.83334759 -9.25 17.3125 C-11.6875 16.375 -11.6875 16.375 -13.25 14.3125 C-14.14798468 11.2663951 -14.50022004 8.48195387 -14.25 5.3125 C-10.70131765 -0.56118113 -6.64700205 -2.0310284 0 0 Z " fill="#44C8BF" transform="translate(632.25,462.6875)"/>
<path d="M0 0 C4.81129177 0.48928391 8.51441037 1.20576415 13 3 C20.29638717 4.17263365 27.62348392 4.32492477 35 4.5625 C36.25167969 4.60568359 37.50335938 4.64886719 38.79296875 4.69335938 C41.86188523 4.79878017 44.93087389 4.90090342 48 5 C48 5.33 48 5.66 48 6 C31.35683357 8.78139874 15.59751111 7.46016318 0 1 C0 0.67 0 0.34 0 0 Z " fill="#44C0BE" transform="translate(426,476)"/>
<path d="M0 0 C0 3 0 3 -2.3125 5.5625 C-5.91953057 8.83399284 -8.30999853 10.12744159 -13 11 C-14.2996167 11.50442627 -14.2996167 11.50442627 -15.62548828 12.01904297 C-19.75887292 13.22060132 -23.40404828 13.25201566 -27.6796875 13.1953125 C-28.49245148 13.1924826 -29.30521545 13.18965271 -30.14260864 13.18673706 C-32.72022675 13.17560619 -35.29748819 13.15051515 -37.875 13.125 C-39.63020329 13.11496101 -41.38541206 13.10583677 -43.140625 13.09765625 C-47.42721926 13.07569015 -51.7135493 13.04120978 -56 13 C-56 12.67 -56 12.34 -56 12 C-55.00782471 11.99589111 -54.01564941 11.99178223 -52.9934082 11.98754883 C-49.24860391 11.96547965 -45.50480959 11.91091323 -41.76049805 11.84741211 C-40.15187391 11.82447073 -38.54310466 11.80989349 -36.93432617 11.80444336 C-22.74034097 11.74694202 -11.07345372 9.735272 0 0 Z " fill="#3DAEC6" transform="translate(330,444)"/>
<path d="M0 0 C0.66 0 1.32 0 2 0 C0.70846523 2.58951468 -0.59505338 5.17238506 -1.91015625 7.75 C-2.62771243 9.16661183 -3.34515722 10.58328009 -4.0625 12 C-4.42666016 12.7115625 -4.79082031 13.423125 -5.16601562 14.15625 C-5.51470703 14.8471875 -5.86339844 15.538125 -6.22265625 16.25 C-6.53984619 16.87390625 -6.85703613 17.4978125 -7.18383789 18.140625 C-9.18158119 22.69187028 -9.19181175 27.15626339 -9.1875 32.0625 C-9.18814453 32.8145874 -9.18878906 33.5666748 -9.18945312 34.34155273 C-9.13262295 40.38169618 -8.42252814 46.11937029 -7 52 C-7.66 51.67 -8.32 51.34 -9 51 C-12.77099233 39.2858536 -12.94708933 24.0550254 -8.34765625 12.59765625 C-6.01395936 8.09937094 -3.39508488 3.77974967 0 0 Z " fill="#3CB7C0" transform="translate(422,378)"/>
<path d="M0 0 C2.84931282 2.3216623 4.30763891 4.05956799 5.0625 7.75 C5.29910484 10.77328404 5.46479126 13.73873159 5.0625 16.75 C4.4025 17.41 3.7425 18.07 3.0625 18.75 C3.07410156 18.16992188 3.08570313 17.58984375 3.09765625 16.9921875 C3.2398964 10.29667203 3.2398964 10.29667203 2.0625 3.75 C0.24548142 2.34145334 0.24548142 2.34145334 -1.9375 1.75 C-2.9275 1.42 -3.9175 1.09 -4.9375 0.75 C-4.9375 0.09 -4.9375 -0.57 -4.9375 -1.25 C-12.43037351 -1.37115308 -12.43037351 -1.37115308 -18.5 2.3125 C-18.974375 3.116875 -19.44875 3.92125 -19.9375 4.75 C-20.5975 4.75 -21.2575 4.75 -21.9375 4.75 C-21.9375 5.41 -21.9375 6.07 -21.9375 6.75 C-22.5975 6.75 -23.2575 6.75 -23.9375 6.75 C-22.58658476 2.32882285 -20.7724855 0.306657 -16.9375 -2.25 C-11.11123423 -4.14804122 -5.09878649 -3.39207971 0 0 Z " fill="#46C5BB" transform="translate(758.9375,428.25)"/>
<path d="M0 0 C5.56842771 -0.04963288 11.13672511 -0.08582963 16.70532227 -0.10986328 C18.59759771 -0.11988815 20.48985778 -0.13351155 22.38208008 -0.15087891 C25.1102275 -0.17528222 27.83816915 -0.18651845 30.56640625 -0.1953125 C31.40522842 -0.20563507 32.2440506 -0.21595764 33.10829163 -0.22659302 C38.1298712 -0.22754087 42.23893583 0.38408979 47 2 C47 2.66 47 3.32 47 4 C47.763125 4.103125 48.52625 4.20625 49.3125 4.3125 C52.17059424 5.04364039 53.15742885 5.76951913 55 8 C50.68800692 7.4436138 47.15973544 5.79480289 43.28125 3.9375 C38.21052323 1.85363969 33.05232032 1.80242557 27.63671875 1.68359375 C26.44874443 1.6524221 26.44874443 1.6524221 25.23677063 1.62062073 C22.72043072 1.55552196 20.20399128 1.49642577 17.6875 1.4375 C15.97590139 1.394277 14.26431265 1.35066152 12.55273438 1.30664062 C8.36859016 1.19988153 4.18434638 1.09850365 0 1 C0 0.67 0 0.34 0 0 Z M45 0 C47 1 47 1 47 1 Z " fill="#4BA8C0" transform="translate(274,366)"/>
<path d="M0 0 C0.66 0 1.32 0 2 0 C2.59865471 5.98654709 2.59865471 5.98654709 0.95703125 8.765625 C-1.41598525 11.63272998 -3.22359272 13.75570037 -6.98828125 14.2734375 C-11.58437935 14.4742754 -13.35809104 14.52400732 -17.0625 11.5 C-17.701875 10.675 -18.34125 9.85 -19 9 C-17.68 9.33 -16.36 9.66 -15 10 C-15 10.66 -15 11.32 -15 12 C-12.03 12.495 -12.03 12.495 -9 13 C-8.690625 12.38125 -8.38125 11.7625 -8.0625 11.125 C-7.375 9.75 -6.6875 8.375 -6 7 C-3.4375 6.375 -3.4375 6.375 -1 6 C-0.67 4.02 -0.34 2.04 0 0 Z " fill="#3CD6CA" transform="translate(668,477)"/>
<path d="M0 0 C2.57370889 1.38504816 4.90538501 2.9549617 7 5 C7 5.66 7 6.32 7 7 C6.34 7 5.68 7 5 7 C5 6.34 5 5.68 5 5 C0.50343896 2.75171948 -3.07872966 2.83317728 -8 3 C-8 3.66 -8 4.32 -8 5 C-8.96679688 5.35191406 -8.96679688 5.35191406 -9.953125 5.7109375 C-12.2077908 6.81161073 -12.2077908 6.81161073 -12.609375 9.1640625 C-12.65578125 9.97617187 -12.7021875 10.78828125 -12.75 11.625 C-12.80671875 12.44226563 -12.8634375 13.25953125 -12.921875 14.1015625 C-12.94765625 14.72804688 -12.9734375 15.35453125 -13 16 C-12.01 15.67 -11.02 15.34 -10 15 C-9.67 15.66 -9.34 16.32 -9 17 C-9.66 17 -10.32 17 -11 17 C-11.33 18.32 -11.66 19.64 -12 21 C-14.98308231 16.89826183 -15.5397141 14.03733161 -15 9 C-13.48007896 5.81540354 -11.71704041 3.26420034 -9 1 C-5.59630052 -0.13456649 -3.57368631 -0.41234842 0 0 Z " fill="#41BCC0" transform="translate(741,299)"/>
<path d="M0 0 C1.83309546 6.26630296 -1.95885566 10.93145916 -4.9375 16.375 C-5.28490234 17.00921875 -5.63230469 17.6434375 -5.99023438 18.296875 C-8.24202422 22.45272067 -10.18531899 26.63510158 -12 31 C-12.65288627 32.34013497 -13.31225595 33.67741528 -14 35 C-14.66 35 -15.32 35 -16 35 C-11.34282827 23.07415838 -5.46198106 11.57551824 0 0 Z " fill="#3399D2" transform="translate(173,390)"/>
<path d="M0 0 C0.66 0 1.32 0 2 0 C1.83628906 0.70511719 1.67257812 1.41023438 1.50390625 2.13671875 C0.98300176 5.09658688 0.90133268 7.81061273 0.9375 10.8125 C0.94652344 11.78832031 0.95554687 12.76414062 0.96484375 13.76953125 C0.97644531 14.50558594 0.98804688 15.24164063 1 16 C1.61875 16.309375 2.2375 16.61875 2.875 16.9375 C4.25 17.625 5.625 18.3125 7 19 C7 19.66 7 20.32 7 21 C8.5625 20.6875 10.125 20.375 11.6875 20.0625 C15.75976562 19.24804688 15.75976562 19.24804688 19.83203125 18.43359375 C20.54746094 18.29050781 21.26289062 18.14742188 22 18 C18.80335815 21.50108394 15.90398947 22.19901917 11.25 22.4375 C6.24543413 22.40819068 3.84177995 21.00216678 0.27734375 17.60546875 C-2.65382426 13.92134015 -2.37475773 9.47966221 -2 5 C-1 2 -1 2 0 0 Z " fill="#48C9BE" transform="translate(724,378)"/>
<path d="M0 0 C0.99 0.99 1.98 1.98 3 3 C-0.96 3 -4.92 3 -9 3 C-11.22720947 8.43771429 -11.22720947 8.43771429 -11 14 C-8.58333229 16.75041666 -8.58333229 16.75041666 -6 19 C-6 19.66 -6 20.32 -6 21 C-9.47129192 20.061813 -10.77084235 19.33978548 -12.8125 16.3125 C-14.17074632 12.52370763 -14.50845625 9.99501339 -14 6 C-10.33729959 0.38385937 -6.68499088 -1.11195888 0 0 Z " fill="#49C0BF" transform="translate(714,319)"/>
<path d="M0 0 C0 0.33 0 0.66 0 1 C-0.60328125 1.03738281 -1.2065625 1.07476562 -1.828125 1.11328125 C-6.4473289 1.49324802 -9.46934101 1.75179373 -13 5 C-13.66 5 -14.32 5 -15 5 C-16.60353166 10.59942911 -17.00949835 16.57720395 -14.75 22 C-12.94635204 24.06131195 -11.54563057 25.03441599 -9 26 C-9 26.66 -9 27.32 -9 28 C-12.35447625 26.82140024 -14.83924737 25.8810035 -17 23 C-19.40008762 17.44190236 -19.90492463 12.56395312 -17.875 6.8125 C-13.15355833 -0.26966251 -7.8687171 -0.55982967 0 0 Z " fill="#4AC4BC" transform="translate(770,394)"/>
<path d="M0 0 C2.74967208 1.08022832 3.99150002 1.98902994 5.828125 4.359375 C12.13784322 12.03090291 21.70702076 15.38888367 31 18 C31 18.33 31 18.66 31 19 C20.55729624 18.49470788 13.19755976 14.66153964 5.69140625 7.453125 C3.95280513 5.77407259 3.95280513 5.77407259 1 5 C0.67 3.35 0.34 1.7 0 0 Z " fill="#42BEBF" transform="translate(419,439)"/>
<path d="M0 0 C0.33 0 0.66 0 1 0 C1.39253254 4.44870215 0.15305957 7.14243493 -2 11 C-2.66 11 -3.32 11 -4 11 C-4.1546875 12.5159375 -4.1546875 12.5159375 -4.3125 14.0625 C-5.03704767 18.21218208 -6.22269266 21.21356263 -8 25 C-8.66 25 -9.32 25 -10 25 C-10.33 25.99 -10.66 26.98 -11 28 C-12 25 -12 25 -10.48828125 21.5234375 C-9.77233128 20.13578166 -9.04651873 18.75318344 -8.3125 17.375 C-7.56752374 15.93566434 -6.82402367 14.49556363 -6.08203125 13.0546875 C-5.72189941 12.35956055 -5.36176758 11.66443359 -4.99072266 10.94824219 C-3.1687787 7.36541498 -1.58275109 3.69308588 0 0 Z " fill="#C9EFFA" transform="translate(220,358)"/>
<path d="M0 0 C1.01739372 3.15890077 0.91377147 5.06746875 0.0625 8.25 C-2.18225424 18.50306665 -1.39127782 29.66479333 0 40 C-4.51995415 35.48004585 -3.22278816 28.69064472 -3.24023438 22.71313477 C-3.24991505 20.70511973 -3.28111291 18.69724618 -3.3125 16.68945312 C-3.31765625 15.41392578 -3.3228125 14.13839844 -3.328125 12.82421875 C-3.3374707 11.65979248 -3.34681641 10.49536621 -3.35644531 9.2956543 C-2.95885964 5.6196207 -1.83121024 3.18527841 0 0 Z " fill="#D5FDFE" transform="translate(386,388)"/>
<path d="M0 0 C1.32 0.33 2.64 0.66 4 1 C-0.82674136 10.76631564 -5.76470752 20.44559123 -11 30 C-11.33 29.34 -11.66 28.68 -12 28 C-11.11962891 25.7409668 -11.11962891 25.7409668 -9.7265625 22.94921875 C-9.2315625 21.94052734 -8.7365625 20.93183594 -8.2265625 19.89257812 C-7.69804687 18.83490234 -7.16953125 17.77722656 -6.625 16.6875 C-5.59107501 14.61069275 -4.56223347 12.53134517 -3.5390625 10.44921875 C-3.07709473 9.52455811 -2.61512695 8.59989746 -2.13916016 7.6472168 C-1.03437486 5.07988139 -0.43506158 2.75258921 0 0 Z " fill="#2791CB" transform="translate(198,397)"/>
<path d="M0 0 C2.5625 0.1875 2.5625 0.1875 4.5625 2.1875 C4.1875 4.8125 4.1875 4.8125 3.5625 7.1875 C1.1875 7.8125 1.1875 7.8125 -1.4375 8.1875 C-3.4375 6.1875 -3.4375 6.1875 -3.625 3.625 C-3.37291261 0.34786389 -3.27713611 0.25208739 0 0 Z " fill="#3EB3D0" transform="translate(618.4375,299.8125)"/>
<path d="M0 0 C1.40795638 4.22386915 -0.48567499 6.70267207 -2.3125 10.5 C-5.28136525 16.92027133 -7.26391771 22.90957466 -8 30 C-8.66 29.34 -9.32 28.68 -10 28 C-9.62838227 17.78051253 -5.19912653 8.62969772 0 0 Z " fill="#46BAC3" transform="translate(395,372)"/>
<path d="M0 0 C0.33 0 0.66 0 1 0 C1 8.58 1 17.16 1 26 C-2 23 -2 23 -2.37231445 20.87109375 C-2.3693335 20.06800781 -2.36635254 19.26492188 -2.36328125 18.4375 C-2.36263672 17.55835938 -2.36199219 16.67921875 -2.36132812 15.7734375 C-2.34521484 14.85820312 -2.32910156 13.94296875 -2.3125 13 C-2.31572266 12.08476562 -2.31894531 11.16953125 -2.32226562 10.2265625 C-2.26721939 3.40082908 -2.26721939 3.40082908 0 0 Z " fill="#CAEFFE" transform="translate(40,341)"/>
<path d="M0 0 C2.625 0.375 2.625 0.375 5 1 C5.625 3.375 5.625 3.375 6 6 C5.34 6.66 4.68 7.32 4 8 C1.375 7.625 1.375 7.625 -1 7 C-1.625 4.625 -1.625 4.625 -2 2 C-1.34 1.34 -0.68 0.68 0 0 Z " fill="#35BDDF" transform="translate(646,287)"/>
<path d="M0 0 C0.625 1.875 0.625 1.875 1 4 C-0.85627485 5.85627485 -2.28304798 6.78175425 -4.5625 8 C-8.02569668 9.59456352 -8.02569668 9.59456352 -9 12 C-9.99 12 -10.98 12 -12 12 C-12.2784375 12.9590625 -12.2784375 12.9590625 -12.5625 13.9375 C-14 16 -14 16 -17.625 16.75 C-18.73875 16.8325 -19.8525 16.915 -21 17 C-18.55735671 14.29680809 -15.86706166 12.61327149 -12.75 10.75 C-7.82202891 7.6806528 -3.8530794 4.3264953 0 0 Z " fill="#D1FBFA" transform="translate(513,459)"/>
<path d="M0 0 C1.10844919 3.32534757 0.84454356 5.62182575 0 9 C-0.99 9 -1.98 9 -3 9 C-3.13792969 9.57621094 -3.27585938 10.15242188 -3.41796875 10.74609375 C-5.77714397 19.8819602 -5.77714397 19.8819602 -9.1875 23 C-9.785625 23.33 -10.38375 23.66 -11 24 C-9.48210922 18.94566211 -7.33199122 14.42761076 -4.9375 9.75 C-4.57333984 9.03070313 -4.20917969 8.31140625 -3.83398438 7.5703125 C-2.89258917 5.71188352 -1.94661263 3.85577685 -1 2 C-0.67 1.34 -0.34 0.68 0 0 Z " fill="#D3F5FD" transform="translate(177,447)"/>
<path d="M0 0 C0.66 0 1.32 0 2 0 C0.48209259 4.25014075 -2.06377171 5.95899274 -6 8 C-11.32570893 8.96541736 -15.44040376 7.96903941 -20 5 C-21.875 2.8125 -21.875 2.8125 -23 1 C-22.443125 1.28875 -21.88625 1.5775 -21.3125 1.875 C-20.549375 2.24625 -19.78625 2.6175 -19 3 C-18.2575 3.37125 -17.515 3.7425 -16.75 4.125 C-12.07348021 5.61298357 -7.77456005 5.49083576 -3.0625 4.1875 C-0.66868314 3.11332248 -0.66868314 3.11332248 0 0 Z " fill="#52CBC1" transform="translate(760,447)"/>
<path d="M0 0 C0.66 0 1.32 0 2 0 C2.45439453 0.85271484 2.45439453 0.85271484 2.91796875 1.72265625 C7.18565351 10.5494144 7.18565351 10.5494144 14 17 C14 17.66 14 18.32 14 19 C14.66 19 15.32 19 16 19 C16 19.66 16 20.32 16 21 C16.66 21 17.32 21 18 21 C18.33 22.32 18.66 23.64 19 25 C11.09901748 18.78007759 4.11318559 11.26768398 0 2 C0 1.34 0 0.68 0 0 Z " fill="#42BBC2" transform="translate(392,442)"/>
<path d="M0 0 C0.66 0 1.32 0 2 0 C2.08755672 4.35403865 2.14057969 8.70784877 2.1875 13.0625 C2.21263672 14.29162109 2.23777344 15.52074219 2.26367188 16.78710938 C2.31631874 23.29777171 2.23999169 28.27686507 -1 34 C-1.98802155 30.90465977 -1.93523727 29.10306585 -1.0625 26 C0.84491888 17.52542755 0.16338433 8.63423348 0 0 Z " fill="#DFFEFE" transform="translate(531,398)"/>
<path d="M0 0 C2.41049138 1.08922007 3.95375076 2.27684275 6 4 C5.01 4.495 5.01 4.495 4 5 C3.154375 4.62875 2.30875 4.2575 1.4375 3.875 C-3.34836739 2.65677921 -6.54688818 4.15938045 -11 6 C-11 5.34 -11 4.68 -11 4 C-11.66 3.34 -12.32 2.68 -13 2 C-8.7583342 -0.8277772 -4.98284464 -0.66437928 0 0 Z " fill="#3CC5C1" transform="translate(764,325)"/>
<path d="M0 0 C0 0.33 0 0.66 0 1 C-0.68707031 1.13277344 -1.37414062 1.26554687 -2.08203125 1.40234375 C-3.43361328 1.66724609 -3.43361328 1.66724609 -4.8125 1.9375 C-6.15248047 2.19853516 -6.15248047 2.19853516 -7.51953125 2.46484375 C-10.11397171 2.97741153 -10.11397171 2.97741153 -13 4 C-15.50377887 8.0060462 -14.94378019 11.45284663 -14.2890625 15.9140625 C-14 18 -14 18 -14 21 C-14.99 20.34 -15.98 19.68 -17 19 C-17.328125 16.28515625 -17.328125 16.28515625 -17.25 13.0625 C-17.23453125 12.00160156 -17.2190625 10.94070313 -17.203125 9.84765625 C-17 7 -17 7 -16 4 C-15.34 4 -14.68 4 -14 4 C-14 3.34 -14 2.68 -14 2 C-9.35150485 -0.3992233 -5.08913926 -0.19957409 0 0 Z " fill="#D3FCFB" transform="translate(706,427)"/>
<path d="M0 0 C0.33 0 0.66 0 1 0 C0.938125 1.175625 0.87625 2.35125 0.8125 3.5625 C0.83596482 7.98170777 1.7635421 11.12347298 4 15 C8.15033773 18.58438259 11.57755816 19.56620465 17 20 C17 20.33 17 20.66 17 21 C7.95423341 21.30663616 7.95423341 21.30663616 4 19 C0.47182576 15.17781124 -1.14471151 12.20383829 -1.125 7 C-1.12757813 6.319375 -1.13015625 5.63875 -1.1328125 4.9375 C-1 3 -1 3 0 0 Z " fill="#51C7BE" transform="translate(710,458)"/>
<path d="M0 0 C3.88999932 0.5762962 6.14170537 2.36736021 9 5 C11.55971729 9.2248621 11.57410898 13.18247683 11 18 C9.5 21.5625 9.5 21.5625 8 24 C7.67 23.01 7.34 22.02 7 21 C7.33 20.34 7.66 19.68 8 19 C8.60679335 13.61687616 9.0803586 9.40154629 5.6875 5 C4.800625 4.34 3.91375 3.68 3 3 C2 2 1 1 0 0 Z " fill="#49C6BC" transform="translate(770,395)"/>
<path d="M0 0 C3 1 3 1 4.1875 3 C5.70259472 8.59419589 5.44642154 14.39511655 4 20 C2.02 20.66 0.04 21.32 -2 22 C-1.34 21.05125 -0.68 20.1025 0 19.125 C2.63733261 14.5236963 2.61221998 10.1776318 2 5 C1.14939987 2.02019799 1.14939987 2.02019799 0 0 Z " fill="#DAFEFE" transform="translate(734,455)"/>
<path d="M0 0 C0.66 0.33 1.32 0.66 2 1 C1.505 1.70125 1.01 2.4025 0.5 3.125 C-1.23895776 6.45800237 -1.47353317 8.29065683 -1 12 C0.41977909 14.22743787 0.41977909 14.22743787 2 16 C2 16.66 2 17.32 2 18 C4.31 18.33 6.62 18.66 9 19 C9 19.33 9 19.66 9 20 C5.22687995 20.35098791 3.46488965 20.30640454 0.25 18.1875 C-2.65299888 15.36513998 -3.9142818 13.75717741 -4.375 9.6875 C-3.9403373 5.41331677 -2.61298187 3.34788302 0 0 Z " fill="#51CAC1" transform="translate(663,440)"/>
<path d="M0 0 C0.99 0.33 1.98 0.66 3 1 C5.4526235 6.02787818 4.94455008 9.67617225 4 15 C3.87625 15.804375 3.7525 16.60875 3.625 17.4375 C3.41875 17.953125 3.2125 18.46875 3 19 C2.01 19.33 1.02 19.66 0 20 C0.14148989 18.3954444 0.28835686 16.79136233 0.4375 15.1875 C0.51871094 14.29417969 0.59992187 13.40085937 0.68359375 12.48046875 C1 10 1 10 2 7 C1.40206327 4.64811553 0.74118205 2.31074405 0 0 Z " fill="#45CCC2" transform="translate(779,363)"/>
<path d="M0 0 C0.66 0 1.32 0 2 0 C0.97120862 7.97313319 -3.25282758 16.37543393 -9 22 C-9.99 22 -10.98 22 -12 22 C-11.52949219 21.41992188 -11.05898438 20.83984375 -10.57421875 20.2421875 C-5.42353453 13.77983835 -2.07826366 7.99332178 0 0 Z " fill="#4CC2C3" transform="translate(504,421)"/>
<path d="M0 0 C1.51066761 4.53200284 -0.63590844 7.28134553 -2.625 11.4375 C-2.96917969 12.20126953 -3.31335938 12.96503906 -3.66796875 13.75195312 C-5.79856818 18.26866667 -7.71402928 21.18028242 -12 24 C-11.1875 21.0625 -11.1875 21.0625 -10 18 C-9.01 17.67 -8.02 17.34 -7 17 C-6.11588398 15.17099868 -6.11588398 15.17099868 -5.5625 12.9375 C-4.16717628 8.30621275 -2.25430995 4.27541542 0 0 Z " fill="#38ABC0" transform="translate(369,430)"/>
<path d="M0 0 C0.66 0.33 1.32 0.66 2 1 C-0.97 7.27 -3.94 13.54 -7 20 C-7.33 20 -7.66 20 -8 20 C-8.16576715 11.21434079 -8.16576715 11.21434079 -5.5 8.4375 C-5.005 7.963125 -4.51 7.48875 -4 7 C-3.67 6.34 -3.34 5.68 -3 5 C-2.34 5 -1.68 5 -1 5 C-0.67 3.35 -0.34 1.7 0 0 Z " fill="#D8F6FC" transform="translate(154,426)"/>
<path d="M0 0 C0.33 0.66 0.66 1.32 1 2 C-0.19761357 4.69093419 -1.44982258 7.26954233 -2.8125 9.875 C-3.18181641 10.59558594 -3.55113281 11.31617188 -3.93164062 12.05859375 C-4.6250479 13.41055121 -5.32172711 14.76083905 -6.02270508 16.10888672 C-7.0330356 18.06392549 -8.01977597 20.02971965 -9 22 C-9.66 22 -10.32 22 -11 22 C-9.52403189 17.03116495 -7.40510877 12.71218514 -4.9375 8.1875 C-4.57333984 7.50751953 -4.20917969 6.82753906 -3.83398438 6.12695312 C-1.1489279 1.1489279 -1.1489279 1.1489279 0 0 Z " fill="#2992CC" transform="translate(185,368)"/>
<path d="M0 0 C8.06224379 2.89050568 14.18169545 8.88332086 20 15 C19.67 15.99 19.34 16.98 19 18 C19 17.34 19 16.68 19 16 C18.34 16 17.68 16 17 16 C16.41476562 15.26265625 15.82953125 14.5253125 15.2265625 13.765625 C12.85269021 10.81702574 10.45934394 8.92816203 7.375 6.75 C6.41335938 6.06421875 5.45171875 5.3784375 4.4609375 4.671875 C2.13523742 3.01232614 2.13523742 3.01232614 0 2 C0 1.34 0 0.68 0 0 Z " fill="#39AAC2" transform="translate(338,351)"/>
<path d="M0 0 C1.32 0 2.64 0 4 0 C7.50664076 5.40607117 7.75691701 10.73823197 7 17 C6.34 17.99 5.68 18.98 5 20 C4.34 20 3.68 20 3 20 C3.16113281 19.43152344 3.32226562 18.86304688 3.48828125 18.27734375 C4.71829496 12.80331326 4.7259683 6.99760854 2 2 C1.34 1.34 0.68 0.68 0 0 Z " fill="#D9FBFA" transform="translate(759,429)"/>
<path d="M0 0 C0.66 0 1.32 0 2 0 C2.44933921 8.83700441 2.44933921 8.83700441 -1 13 C-5.24282736 16.51548553 -8.71249551 16.43340201 -14 16 C-14.66 15.34 -15.32 14.68 -16 14 C-14.96875 14.04125 -13.9375 14.0825 -12.875 14.125 C-9.02374228 14.00076588 -6.46694811 13.65467978 -3 12 C0.29261483 8.15861604 0.29025698 4.93436874 0 0 Z " fill="#43B9B9" transform="translate(748,307)"/>
<path d="M0 0 C0.33 0.99 0.66 1.98 1 3 C-1.92477319 5.92477319 -4.02014991 7.30875009 -8.125 7.4375 C-12 7 -12 7 -14 5.5 C-14.33 5.005 -14.66 4.51 -15 4 C-14.67 3.01 -14.34 2.02 -14 1 C-13.67 1.99 -13.34 2.98 -13 4 C-8.55504028 4.1234711 -5.19246523 3.39748841 -1 2 C-0.67 1.34 -0.34 0.68 0 0 Z " fill="#3CADBE" transform="translate(686,290)"/>
<path d="M0 0 C0.33 0.66 0.66 1.32 1 2 C0.04882866 3.1725131 -0.91117009 4.33787015 -1.875 5.5 C-2.67550781 6.47453125 -2.67550781 6.47453125 -3.4921875 7.46875 C-3.98976563 7.9740625 -4.48734375 8.479375 -5 9 C-5.66 9 -6.32 9 -7 9 C-7.28875 9.9075 -7.5775 10.815 -7.875 11.75 C-8.76531776 14.32202908 -9.71494413 16.61346766 -11 19 C-11.66 19 -12.32 19 -13 19 C-11.03835796 11.15343182 -5.76167012 5.42274835 0 0 Z " fill="#CDF9FA" transform="translate(429,374)"/>
<path d="M0 0 C2 3 2 3 2 5 C2.99 5.33 3.98 5.66 5 6 C5 6.66 5 7.32 5 8 C10.94 8.99 10.94 8.99 17 10 C17 10.66 17 11.32 17 12 C11.22518209 12.48123483 6.73046754 11.52338272 2 8 C0.03520501 4.9810769 0 3.78381448 0 0 Z " fill="#E1FEFE" transform="translate(709,469)"/>
<path d="M0 0 C0.33 0.66 0.66 1.32 1 2 C-2.93030788 7.33731159 -6.69898077 11.99191229 -12 16 C-12 15.01 -12 14.02 -12 13 C-11.34 13 -10.68 13 -10 13 C-10 12.34 -10 11.68 -10 11 C-9.34 11 -8.68 11 -8 11 C-8.33 10.01 -8.66 9.02 -9 8 C-8.01 8 -7.02 8 -6 8 C-6 7.34 -6 6.68 -6 6 C-4.37550757 4.29220027 -2.70779973 2.62449243 -1 1 C-0.67 0.67 -0.34 0.34 0 0 Z " fill="#41C6C0" transform="translate(518,450)"/>
<path d="M0 0 C4 4.75 4 4.75 4 7 C8.08564325 6.88455718 8.08564325 6.88455718 12 6 C14.08632697 3.08158143 14.08632697 3.08158143 15 0 C15.75 1.6875 15.75 1.6875 16 4 C14.5625 6.75 14.5625 6.75 12 9 C9.18177741 9.72616778 6.81813766 9.7276339 4 9 C1.5 6.75 1.5 6.75 0 4 C0 2.68 0 1.36 0 0 Z " fill="#48C3B9" transform="translate(630,440)"/>
<path d="M0 0 C3 1 3 1 3.984375 2.671875 C5.50764155 6.80645562 6.49659646 9.64626484 5 14 C4.34 14 3.68 14 3 14 C2.67 15.65 2.34 17.3 2 19 C1.34 19 0.68 19 0 19 C0.33 18.175 0.66 17.35 1 16.5 C2.6553658 10.7062197 2.76373827 5.52747653 0 0 Z " fill="#D4FBFA" transform="translate(770,329)"/>
<path d="M0 0 C2.25 0.6875 2.25 0.6875 4 2 C5.25 4.625 5.25 4.625 6 7 C4.948125 6.34 3.89625 5.68 2.8125 5 C-0.26088036 3.2455602 -2.39953014 2.38277659 -6 3 C-6.66 3.66 -7.32 4.32 -8 5 C-8.99 5.33 -9.98 5.66 -11 6 C-8.63701851 0.5469658 -5.79701359 -0.4732256 0 0 Z " fill="#55CCC2" transform="translate(630,462)"/>
<path d="M0 0 C0.66 0 1.32 0 2 0 C5.95789821 8.11829353 7.1577667 15.00729813 7 24 C6.67 24 6.34 24 6 24 C5.73445313 22.77023437 5.46890625 21.54046875 5.1953125 20.2734375 C4.83871309 18.64058755 4.48193267 17.00777713 4.125 15.375 C3.95097656 14.56675781 3.77695312 13.75851562 3.59765625 12.92578125 C2.62929775 8.51437032 1.5300773 4.25940436 0 0 Z " fill="#D0F9FC" transform="translate(366,378)"/>
<path d="M0 0 C1.77734375 1.5546875 1.77734375 1.5546875 3 3 C1.68 3 0.36 3 -1 3 C-1 2.34 -1 1.68 -1 1 C-6.20540698 1.96396425 -10.59913433 2.87680501 -15 6 C-12.00837915 -1.22975039 -7.13643806 -2.07653262 0 0 Z " fill="#51B6C4" transform="translate(715,284)"/>
<path d="M0 0 C-0.33 0.99 -0.66 1.98 -1 3 C-1.804375 2.484375 -2.60875 1.96875 -3.4375 1.4375 C-7.97090674 -0.39176939 -11.30810658 -0.20190818 -16 1 C-18.49807812 2.38518644 -18.49807812 2.38518644 -20 4 C-20 2.68 -20 1.36 -20 0 C-13.26612744 -2.29238215 -6.44830104 -3.66810804 0 0 Z " fill="#D7FDFD" transform="translate(702,465)"/>
<path d="M0 0 C0.66 0.33 1.32 0.66 2 1 C-1.07101015 5.54509503 -3.9111661 7.09168729 -9 9 C-9.721875 9.4125 -10.44375 9.825 -11.1875 10.25 C-13.50419879 11.20863398 -14.64486602 10.68264753 -17 10 C-15.94039063 9.44570313 -14.88078125 8.89140625 -13.7890625 8.3203125 C-12.40094005 7.58873445 -11.01292477 6.85695302 -9.625 6.125 C-8.92632812 5.76019531 -8.22765625 5.39539063 -7.5078125 5.01953125 C-3.48015204 2.89684905 -3.48015204 2.89684905 0 0 Z " fill="#42C3BD" transform="translate(489,446)"/>
<path d="M0 0 C0.61875 0.495 1.2375 0.99 1.875 1.5 C7.34055077 4.12346437 12.87475741 3.58627382 18.625 2 C19.40875 1.67 20.1925 1.34 21 1 C19.94921875 2.984375 19.94921875 2.984375 18 5 C14.64453125 5.390625 14.64453125 5.390625 10.8125 5.25 C8.90404297 5.19585937 8.90404297 5.19585937 6.95703125 5.140625 C5.49330078 5.07101562 5.49330078 5.07101562 4 5 C4 5.66 4 6.32 4 7 C2 6 2 6 0.875 2.9375 C0.58625 1.968125 0.2975 0.99875 0 0 Z " fill="#D3FBFA" transform="translate(725,396)"/>
<path d="M0 0 C2.46996424 2.46996424 2.32331778 3.33897333 2.375 6.75 C2.28453062 11.55879539 1.28304198 14.34175323 -2 18 C-2.99 18.33 -3.98 18.66 -5 19 C-4.505 17.515 -4.505 17.515 -4 16 C-3.34 16 -2.68 16 -2 16 C-0.53129487 10.75462454 0.16496581 5.44387164 0 0 Z " fill="#49C6BD" transform="translate(735,458)"/>
<path d="M0 0 C1.53920673 4.65922038 0.00891712 7.71898885 -2 12 C-3.5625 14.5 -3.5625 14.5 -5 16 C-5.66 16 -6.32 16 -7 16 C-5.35433477 10.31497465 -2.70967216 5.23318364 0 0 Z " fill="#DCF8FE" transform="translate(207,386)"/>
<path d="M0 0 C2 1 2 1 2 1 Z M-9 1 C-7.54176788 0.9729957 -6.08339325 0.95360213 -4.625 0.9375 C-3.81289063 0.92589844 -3.00078125 0.91429687 -2.1640625 0.90234375 C0 1 0 1 2 2 C2 2.66 2 3.32 2 4 C3.1446875 4.1546875 3.1446875 4.1546875 4.3125 4.3125 C7.17059424 5.04364039 8.15742885 5.76951913 10 8 C5.64863841 7.43853399 2.09872526 5.73664135 -1.83984375 3.921875 C-4.20037363 2.91448793 -6.4544547 2.32845746 -9 2 C-9 1.67 -9 1.34 -9 1 Z " fill="#3EB1C7" transform="translate(319,366)"/>
<path d="M0 0 C0.33 0.474375 0.66 0.94875 1 1.4375 C0.38125 1.2725 -0.2375 1.1075 -0.875 0.9375 C-5.25470729 0.23674683 -9.57428989 0.36015749 -14 0.4375 C-14 1.0975 -14 1.7575 -14 2.4375 C-15.32 2.7675 -16.64 3.0975 -18 3.4375 C-14.64 -1.2425 -14.64 -1.2425 -12.25 -2.4375 C-7.9023809 -2.67903439 -3.52118068 -2.7509224 0 0 Z " fill="#58CAC1" transform="translate(700,466.5625)"/>
<path d="M0 0 C0.928125 0.350625 1.85625 0.70125 2.8125 1.0625 C7.87899235 2.55325804 12.84687163 1.68956871 18 1 C18 1.66 18 2.32 18 3 C17.21625 3.309375 16.4325 3.61875 15.625 3.9375 C13.07669872 4.92875038 13.07669872 4.92875038 11 6 C9.32345271 5.72057545 7.65391846 5.39171753 6 5 C6 4.34 6 3.68 6 3 C4.35 3 2.7 3 1 3 C0.67 2.01 0.34 1.02 0 0 Z " fill="#D9FCFB" transform="translate(683,488)"/>
<path d="M0 0 C6.95230941 -0.44534366 11.59696035 -0.67289916 17 4 C15.68 4.33 14.36 4.66 13 5 C12.67 4.01 12.34 3.02 12 2 C5.565 2.495 5.565 2.495 -1 3 C-0.67 2.01 -0.34 1.02 0 0 Z " fill="#49C8BE" transform="translate(717,451)"/>
<path d="M0 0 C2 3.75 2 3.75 2 6 C1.34 6 0.68 6 0 6 C-0.144375 6.61875 -0.28875 7.2375 -0.4375 7.875 C-1 10 -1 10 -2 12 C-2.99 12 -3.98 12 -5 12 C-3.68938409 7.76570244 -2.05643741 3.92592596 0 0 Z " fill="#CBEDFA" transform="translate(183,434)"/>
<path d="M0 0 C0.33 0 0.66 0 1 0 C1.35991531 4.43895554 1.35991531 4.43895554 -0.0625 6.65625 C-3.03414405 8.71722894 -5.62997456 8.28541354 -9.1875 8.1875 C-10.45980469 8.16042969 -11.73210938 8.13335937 -13.04296875 8.10546875 C-14.01878906 8.07066406 -14.99460937 8.03585937 -16 8 C-15.67 7.01 -15.34 6.02 -15 5 C-14.67 5.33 -14.34 5.66 -14 6 C-8.3952291 6.21326403 -8.3952291 6.21326403 -3 5 C-1.9590934 3.35857037 -0.95495674 1.69287785 0 0 Z " fill="#CEF9F8" transform="translate(720,333)"/>
<path d="M0 0 C3.18136394 -0.21691118 5.43969547 -0.25066255 8.375 1.0625 C10 3 10 3 10.4375 6.5 C10 10 10 10 7 13 C7.66 10.03 8.32 7.06 9 4 C4.545 3.01 4.545 3.01 0 2 C0 1.34 0 0.68 0 0 Z " fill="#3BB1B9" transform="translate(676,310)"/>
<path d="M0 0 C1.2684375 0.495 1.2684375 0.495 2.5625 1 C7.87349246 2.54501599 12.65735957 2.29518556 18 1 C18 1.66 18 2.32 18 3 C13.51202371 5.64597242 9.9544202 4.96091068 5 4 C1.9375 2.9375 1.9375 2.9375 0 2 C0 1.34 0 0.68 0 0 Z " fill="#DAFDFC" transform="translate(760,384)"/>
<path d="M0 0 C0.33 0 0.66 0 1 0 C1.25 5.625 1.25 5.625 -1 9 C-1.66 9 -2.32 9 -3 9 C-3.33 9.99 -3.66 10.98 -4 12 C-5 9 -5 9 -4.2578125 6.9921875 C-3.88398438 6.29351562 -3.51015625 5.59484375 -3.125 4.875 C-2.75632813 4.17117188 -2.38765625 3.46734375 -2.0078125 2.7421875 C-1 1 -1 1 0 0 Z " fill="#D9F6FD" transform="translate(213,374)"/>
<path d="M0 0 C0.66 0 1.32 0 2 0 C2.41846009 1.57750424 2.80896389 3.16244248 3.1875 4.75 C3.40792969 5.63171875 3.62835937 6.5134375 3.85546875 7.421875 C4 10 4 10 2.67578125 12.328125 C1 14 1 14 -1 14 C-0.83628906 13.44828125 -0.67257812 12.8965625 -0.50390625 12.328125 C0.05760414 9.73385993 0.09739008 7.40164589 0.0625 4.75 C0.05347656 3.85796875 0.04445313 2.9659375 0.03515625 2.046875 C0.02355469 1.37140625 0.01195312 0.6959375 0 0 Z " fill="#D8FBFB" transform="translate(742,348)"/>
<path d="M0 0 C0.99 0.33 1.98 0.66 3 1 C2.34 1 1.68 1 1 1 C0.67 4.3 0.34 7.6 0 11 C-0.99 10.67 -1.98 10.34 -3 10 C-3.36923077 3.47692308 -3.36923077 3.47692308 -1.5 1.0625 C-1.005 0.711875 -0.51 0.36125 0 0 Z " fill="#D1F7F9" transform="translate(673,310)"/>
<path d="M0 0 C0.33 0.66 0.66 1.32 1 2 C1.66 2 2.32 2 3 2 C3 4.64 3 7.28 3 10 C2.01 10.33 1.02 10.66 0 11 C0 11.99 0 12.98 0 14 C-1.32 14.33 -2.64 14.66 -4 15 C-3.34 14.195625 -2.68 13.39125 -2 12.5625 C0.72209596 8.56561966 0.37338272 4.66728396 0 0 Z " fill="#D4F9FA" transform="translate(720,289)"/>
<path d="M0 0 C0.33 0.66 0.66 1.32 1 2 C-0.07518118 4.44332726 -1.19808566 6.76754523 -2.4375 9.125 C-2.77587891 9.78371094 -3.11425781 10.44242187 -3.46289062 11.12109375 C-4.30149926 12.75106547 -5.14984811 14.37601909 -6 16 C-6.66 16 -7.32 16 -8 16 C-6.64190249 12.48789667 -5.12536693 9.11565705 -3.4375 5.75 C-2.78587891 4.44289063 -2.78587891 4.44289063 -2.12109375 3.109375 C-1 1 -1 1 0 0 Z " fill="#278FCB" transform="translate(165,409)"/>
<path d="M0 0 C0.66 0 1.32 0 2 0 C1.814375 0.9075 1.62875 1.815 1.4375 2.75 C1.04265379 5.68314324 1.05308428 7.2644657 2 10 C0.68 10.33 -0.64 10.66 -2 11 C-2.92817192 7.37169157 -3.26901295 5.58926645 -1.6875 2.125 C-0.8521875 1.073125 -0.8521875 1.073125 0 0 Z " fill="#2DC5D3" transform="translate(392,383)"/>
<path d="M0 0 C0.639375 0.474375 1.27875 0.94875 1.9375 1.4375 C5.92181519 3.47031387 9.58494074 3.7210529 14 4 C13 6 13 6 10.875 6.8125 C6.88180898 7.0729255 4.46188597 5.93066718 1 4 C0.0625 1.8125 0.0625 1.8125 0 0 Z " fill="#D2FDFD" transform="translate(649,487)"/>
<path d="M0 0 C1.32 0.33 2.64 0.66 4 1 C4 1.66 4 2.32 4 3 C5.45792884 3.05399736 6.91642712 3.09279177 8.375 3.125 C9.59316406 3.15980469 9.59316406 3.15980469 10.8359375 3.1953125 C13.21342243 3.21370051 13.21342243 3.21370051 15 1 C15.99 1.33 16.98 1.66 18 2 C15.40221712 4.71072996 13.196242 5.30620043 9.5625 5.5 C5.72803375 5.39875997 5.09702874 5.07920714 1.9375 2.5 C1.298125 1.675 0.65875 0.85 0 0 Z " fill="#4AC4BC" transform="translate(649,486)"/>
<path d="M0 0 C0.99 0.33 1.98 0.66 3 1 C4.33180544 1.06712729 5.6666976 1.08522675 7 1.0625 C7.680625 1.05347656 8.36125 1.04445313 9.0625 1.03515625 C10.0215625 1.01775391 10.0215625 1.01775391 11 1 C11.99 1 12.98 1 14 1 C12.29171079 3.10633718 11.47851584 3.93801608 8.73828125 4.29296875 C7.93777344 4.25816406 7.13726563 4.22335937 6.3125 4.1875 C5.50425781 4.16042969 4.69601562 4.13335937 3.86328125 4.10546875 C3.24839844 4.07066406 2.63351562 4.03585937 2 4 C1.34 2.68 0.68 1.36 0 0 Z " fill="#CDF9F7" transform="translate(620,478)"/>
<path d="M0 0 C0.495 0.66 0.99 1.32 1.5 2 C4.56237628 4.44990102 6.27297332 4.57732955 10.09375 4.40625 C12.94809908 3.7979461 14.28977272 2.28030304 16 0 C15.42655063 2.86724686 15.1385485 3.8614515 13 6 C10.46875 6.265625 10.46875 6.265625 7.5 6.25 C6.5203125 6.25515625 5.540625 6.2603125 4.53125 6.265625 C2 6 2 6 0 4 C0 2.68 0 1.36 0 0 Z " fill="#C8FAF8" transform="translate(630,444)"/>
<path d="M0 0 C2.05078125 0.03255208 4.1015625 0.06510417 6.15234375 0.09765625 C2.98444682 1.85759899 0.90869944 2.34638511 -2.84765625 3.09765625 C-3.50765625 6.39765625 -4.16765625 9.69765625 -4.84765625 13.09765625 C-5.17765625 13.09765625 -5.50765625 13.09765625 -5.84765625 13.09765625 C-6.14308979 8.0752861 -5.85445198 5.18689845 -2.84765625 1.09765625 C-1.84765625 0.09765625 -1.84765625 0.09765625 0 0 Z " fill="#DAFDFD" transform="translate(633.84765625,430.90234375)"/>
<path d="M0 0 C0.66 0 1.32 0 2 0 C-0.66666667 5.33333333 -3.33333333 10.66666667 -6 16 C-6.33 16 -6.66 16 -7 16 C-7.39323398 11.03360049 -6.563177 8.6185222 -3.625 4.625 C-2.99851562 3.75101562 -2.37203125 2.87703125 -1.7265625 1.9765625 C-1.15679687 1.32429688 -0.58703125 0.67203125 0 0 Z " fill="#46BFC4" transform="translate(422,378)"/>
<path d="M0 0 C3.96 0 7.92 0 12 0 C12.33 0.66 12.66 1.32 13 2 C12.34773437 1.94199219 11.69546875 1.88398438 11.0234375 1.82421875 C4.70556784 1.47094873 4.70556784 1.47094873 -0.625 4.5 C-1.40875 5.325 -2.1925 6.15 -3 7 C-3 5.35 -3 3.7 -3 2 C-2.01 2 -1.02 2 0 2 C0 1.34 0 0.68 0 0 Z " fill="#D6FCFD" transform="translate(703,318)"/>
<path d="M0 0 C0.66 0.33 1.32 0.66 2 1 C1.01 2.485 1.01 2.485 0 4 C0.31730524 7.63939932 0.31730524 7.63939932 1 11 C2.32 11.33 3.64 11.66 5 12 C2.6875 12.25 2.6875 12.25 0 12 C-1.875 10.375 -1.875 10.375 -3 8 C-2.77962372 4.32706204 -2.63033454 2.63033454 0 0 Z " fill="#52ACC3" transform="translate(645,285)"/>
<path d="M0 0 C5.01660163 2.41540079 9.17814158 4.89504096 13 9 C7.99971686 7.65846062 3.80932497 5.51629997 0 2 C0 1.34 0 0.68 0 0 Z " fill="#44BFC3" transform="translate(413,467)"/>
<path d="M0 0 C0.66 0.33 1.32 0.66 2 1 C0.11122244 8.7004008 0.11122244 8.7004008 -3 11 C-3.33 11 -3.66 11 -4 11 C-4.17754126 7.09409237 -4.20731737 4.31097606 -2 1 C-1.34 0.67 -0.68 0.34 0 0 Z " fill="#58D3CA" transform="translate(633,433)"/>
<path d="M0 0 C0.33 0 0.66 0 1 0 C1.10957031 0.65226562 1.21914063 1.30453125 1.33203125 1.9765625 C2.26508962 7.1197623 3.34784083 11.41899779 6 16 C3 16 3 16 1.32421875 14.390625 C-0.37149862 11.32932993 -0.30089294 9.22738335 -0.1875 5.75 C-0.14689453 4.13351562 -0.14689453 4.13351562 -0.10546875 2.484375 C-0.07066406 1.66453125 -0.03585937 0.8446875 0 0 Z " fill="#CCFAF9" transform="translate(750,404)"/>
<path d="M0 0 C0.33 0.99 0.66 1.98 1 3 C1.66 3 2.32 3 3 3 C3 3.66 3 4.32 3 5 C4.32 5 5.64 5 7 5 C7 5.66 7 6.32 7 7 C9.31 7.33 11.62 7.66 14 8 C14 8.33 14 8.66 14 9 C9.43535342 8.80110472 5.92625258 8.54819031 1.9375 6.1875 C0 4 0 4 0 0 Z " fill="#49C5BF" transform="translate(748,343)"/>
<path d="M0 0 C0.98484375 0.01804687 1.9696875 0.03609375 2.984375 0.0546875 C4.10585938 0.08949219 4.10585938 0.08949219 5.25 0.125 C5.58 1.445 5.91 2.765 6.25 4.125 C5.68410156 3.78984375 5.11820313 3.4546875 4.53515625 3.109375 C1.91667413 1.98141347 0.48990066 2.0146236 -2.3125 2.375 C-3.07691406 2.46265625 -3.84132813 2.5503125 -4.62890625 2.640625 C-7.03412893 3.05764059 -7.03412893 3.05764059 -9.75 5.125 C-9.75 4.135 -9.75 3.145 -9.75 2.125 C-6.40060119 0.09941119 -3.88037449 -0.09238987 0 0 Z " fill="#D0F7FB" transform="translate(679.75,276.875)"/>
<path d="M0 0 C0 0.33 0 0.66 0 1 C-2.31 1 -4.62 1 -7 1 C-7 1.66 -7 2.32 -7 3 C-8.75 4.2890625 -8.75 4.2890625 -11 5.625 C-11.7425 6.07101562 -12.485 6.51703125 -13.25 6.9765625 C-13.8275 7.31429688 -14.405 7.65203125 -15 8 C-14.09126425 4.94334338 -13.32469175 3.27694297 -10.875 1.1875 C-7.02507023 -0.40268838 -4.14686216 -0.2108574 0 0 Z " fill="#52C8BC" transform="translate(706,428)"/>
<path d="M0 0 C0.66 0 1.32 0 2 0 C0.78184562 4.68520915 -0.69559987 8.70543612 -3 13 C-3.33 13 -3.66 13 -4 13 C-4 11.02 -4 9.04 -4 7 C-3.34 7 -2.68 7 -2 7 C-2.04125 6.21625 -2.0825 5.4325 -2.125 4.625 C-2 2 -2 2 0 0 Z " fill="#CDF2FC" transform="translate(160,413)"/>
<path d="M0 0 C0.66 0.33 1.32 0.66 2 1 C1.04901734 2.98270912 0.08899297 4.96108379 -0.875 6.9375 C-1.40867188 8.03964844 -1.94234375 9.14179688 -2.4921875 10.27734375 C-4 13 -4 13 -6 14 C-4.45941767 8.98491285 -2.97068161 4.3852919 0 0 Z " fill="#2A92CC" transform="translate(209,378)"/>
<path d="M0 0 C5.94 0.99 5.94 0.99 12 2 C12 2.66 12 3.32 12 4 C8.10885099 5.01911045 6.39403493 5.16782969 2.625 3.5625 C1.75875 3.046875 0.8925 2.53125 0 2 C0 1.34 0 0.68 0 0 Z " fill="#D7FCFD" transform="translate(730,321)"/>
<path d="M0 0 C0.49628906 0.27714844 0.99257813 0.55429687 1.50390625 0.83984375 C6.09318168 3.28687676 9.81559721 4.56796643 15 5 C15 5.33 15 5.66 15 6 C3.97553517 6.57798165 3.97553517 6.57798165 0 3 C0 2.01 0 1.02 0 0 Z " fill="#D8FDFC" transform="translate(738,450)"/>
<path d="M0 0 C0.66 0.33 1.32 0.66 2 1 C2.10884119 2.41493551 2.18597617 3.83232943 2.25 5.25 C2.29640625 6.03890625 2.3428125 6.8278125 2.390625 7.640625 C2 10 2 10 -2 14 C-1.34 9.38 -0.68 4.76 0 0 Z " fill="#D4FCFB" transform="translate(781,404)"/>
<path d="M0 0 C1.77074917 -0.02705729 3.54161711 -0.04642195 5.3125 -0.0625 C6.29863281 -0.07410156 7.28476562 -0.08570313 8.30078125 -0.09765625 C11 0 11 0 14 1 C14.33 1.99 14.66 2.98 15 4 C10.05 3.01 5.1 2.02 0 1 C0 0.67 0 0.34 0 0 Z " fill="#CBF9F9" transform="translate(469,339)"/>
<path d="M0 0 C1.21236328 0.02707031 1.21236328 0.02707031 2.44921875 0.0546875 C3.37154297 0.08949219 3.37154297 0.08949219 4.3125 0.125 C4.6425 0.785 4.9725 1.445 5.3125 2.125 C1.0225 2.785 -3.2675 3.445 -7.6875 4.125 C-7.6875 3.465 -7.6875 2.805 -7.6875 2.125 C-4.48369983 -0.01086678 -3.66810033 -0.10632175 0 0 Z " fill="#C3F5F6" transform="translate(756.6875,322.875)"/>
<path d="M0 0 C0.99 0 1.98 0 3 0 C3.18451025 10.55808656 3.18451025 10.55808656 2 15 C0.68 14.67 -0.64 14.34 -2 14 C-1.505 13.29875 -1.01 12.5975 -0.5 11.875 C1.21807988 8.58201357 1.31855382 6.66336896 1 3 C0.67 2.01 0.34 1.02 0 0 Z " fill="#C2F1F7" transform="translate(686,281)"/>
<path d="M0 0 C1.875 0.1875 1.875 0.1875 4 1 C5.25 3.5625 5.25 3.5625 6 6 C5.01 6 4.02 6 3 6 C2.67 5.34 2.34 4.68 2 4 C1.01 4 0.02 4 -1 4 C-0.67 2.68 -0.34 1.36 0 0 Z " fill="#46CFC6" transform="translate(699,468)"/>
<path d="M0 0 C0 3.52032428 -0.70351351 4.4385343 -3 7 C-3.66 7 -4.32 7 -5 7 C-5 7.66 -5 8.32 -5 9 C-5.66 9 -6.32 9 -7 9 C-5.64978174 4.58110387 -3.73884332 2.65654657 0 0 Z " fill="#56CDC6" transform="translate(742,426)"/>
<path d="M0 0 C0.66 0.33 1.32 0.66 2 1 C1.67 1.99 1.34 2.98 1 4 C0.90752619 5.47686111 0.87000929 6.95775501 0.875 8.4375 C0.87242187 9.19933594 0.86984375 9.96117187 0.8671875 10.74609375 C0.99723985 12.95315859 1.39143801 14.87969276 2 17 C1.01 16.67 0.02 16.34 -1 16 C-1.02692484 13.70839681 -1.04636124 11.41670454 -1.0625 9.125 C-1.07410156 7.84882813 -1.08570313 6.57265625 -1.09765625 5.2578125 C-1 2 -1 2 0 0 Z " fill="#D7FDFD" transform="translate(754,363)"/>
<path d="M0 0 C1.10272046 3.30816138 1.21537818 5.70111637 0 9 C-2.5625 10.3125 -2.5625 10.3125 -5 11 C-3.77472971 6.94718288 -2.30119506 3.55639236 0 0 Z " fill="#C3EEFB" transform="translate(177,447)"/>
<path d="M0 0 C0.66 0 1.32 0 2 0 C0.55007731 4.10811428 -1.45407573 7.46855666 -4 11 C-4.33 11 -4.66 11 -5 11 C-5 9.35 -5 7.7 -5 6 C-4.360625 5.7525 -3.72125 5.505 -3.0625 5.25 C-0.81258459 4.18437567 -0.81258459 4.18437567 -0.25 1.875 C-0.1675 1.25625 -0.085 0.6375 0 0 Z " fill="#D4F8FC" transform="translate(337,431)"/>
<path d="M0 0 C-1 3 -1 3 -3.25 4.75 C-6.41076857 6.18671298 -7.74770785 6.02214896 -11 5 C-3.5 0 -3.5 0 0 0 Z " fill="#DEFBFE" transform="translate(338,472)"/>
<path d="M0 0 C1.21236328 0.01353516 1.21236328 0.01353516 2.44921875 0.02734375 C3.37154297 0.04474609 3.37154297 0.04474609 4.3125 0.0625 C4.3125 0.3925 4.3125 0.7225 4.3125 1.0625 C3.69761719 1.19527344 3.08273437 1.32804687 2.44921875 1.46484375 C1.23685547 1.72974609 1.23685547 1.72974609 0 2 C-1.20076172 2.26103516 -1.20076172 2.26103516 -2.42578125 2.52734375 C-4.832901 3.06136159 -4.832901 3.06136159 -7.6875 4.0625 C-8.0175 4.7225 -8.3475 5.3825 -8.6875 6.0625 C-8.3575 4.4125 -8.0275 2.7625 -7.6875 1.0625 C-4.80538698 0.10179566 -2.98899956 -0.04331883 0 0 Z " fill="#DAFCFC" transform="translate(657.6875,466.9375)"/>
<path d="M0 0 C0.66 0 1.32 0 2 0 C0.68938409 4.23429756 -0.94356259 8.07407404 -3 12 C-3.93423645 8.98968256 -4.04449911 8.13349732 -3 5 C-2.34 5 -1.68 5 -1 5 C-0.67 3.35 -0.34 1.7 0 0 Z " fill="#D5F9FF" transform="translate(144,446)"/>
<path d="M0 0 C2 2 2 2 2.3125 4.1875 C1.8993837 7.90554672 0.59139617 10.61828313 -1 14 C-2.13732426 10.59598052 -1.83989957 8.22543336 -1.0625 4.75 C-0.86785156 3.85796875 -0.67320312 2.9659375 -0.47265625 2.046875 C-0.31667969 1.37140625 -0.16070313 0.6959375 0 0 Z " fill="#CCFBFB" transform="translate(531,418)"/>
<path d="M0 0 C1.258125 -0.04125 2.51625 -0.0825 3.8125 -0.125 C4.52019531 -0.14820313 5.22789062 -0.17140625 5.95703125 -0.1953125 C8 0 8 0 11 2 C10.67 2.66 10.34 3.32 10 4 C6.37 3.34 2.74 2.68 -1 2 C-0.67 1.34 -0.34 0.68 0 0 Z " fill="#C6F4F4" transform="translate(733,372)"/>
<path d="M0 0 C5.73071096 1.84548319 9.06036945 3.44480217 13 8 C11.02 7.34 9.04 6.68 7 6 C7 5.34 7 4.68 7 4 C4.69 3.34 2.38 2.68 0 2 C0 1.34 0 0.68 0 0 Z " fill="#CEFBFB" transform="translate(474,367)"/>
<path d="M0 0 C0.66 0.66 1.32 1.32 2 2 C0.35 5.3 -1.3 8.6 -3 12 C-5 8 -5 8 -5 6 C-4.34 6 -3.68 6 -3 6 C-2.01 4.02 -1.02 2.04 0 0 Z " fill="#2896D1" transform="translate(216,363)"/>
<path d="M0 0 C1.32 0 2.64 0 4 0 C4.36923077 6.4 4.36923077 6.4 2.5 9.4375 C2.005 9.953125 1.51 10.46875 1 11 C0.77963136 7.14354879 1.39644899 4.50776784 3 1 C2.34 1 1.68 1 1 1 C0.67 2.32 0.34 3.64 0 5 C0 3.35 0 1.7 0 0 Z " fill="#19A6ED" transform="translate(219,343)"/>
<path d="M0 0 C2.97 0 5.94 0 9 0 C8.01 0.66 7.02 1.32 6 2 C6.66 2.66 7.32 3.32 8 4 C5.125 4.125 5.125 4.125 2 4 C1.34 3.34 0.68 2.68 0 2 C0 1.34 0 0.68 0 0 Z " fill="#37D1C6" transform="translate(655,470)"/>
<path d="M0 0 C-1.98 2.31 -3.96 4.62 -6 7 C-6.66 5.68 -7.32 4.36 -8 3 C-5.53387212 -0.1151089 -3.89156016 -0.31553191 0 0 Z " fill="#DFF9FA" transform="translate(717,451)"/>
<path d="M0 0 C4.29 0 8.58 0 13 0 C13.33 1.32 13.66 2.64 14 4 C13.44828125 3.67257812 12.8965625 3.34515625 12.328125 3.0078125 C9.61219077 1.83212285 7.69448241 1.79751362 4.75 1.875 C3.41195312 1.90207031 3.41195312 1.90207031 2.046875 1.9296875 C1.37140625 1.95289063 0.6959375 1.97609375 0 2 C0 1.34 0 0.68 0 0 Z " fill="#D3FDFC" transform="translate(664,438)"/>
<path d="M0 0 C1.18771723 3.42943519 0.80226223 5.37784675 -0.4375 8.75 C-0.86869141 9.94882812 -0.86869141 9.94882812 -1.30859375 11.171875 C-1.65083984 12.07679688 -1.65083984 12.07679688 -2 13 C-2.33 13 -2.66 13 -3 13 C-3.31563182 7.73946963 -2.66590937 4.55426184 0 0 Z " fill="#E5FEFE" transform="translate(386,388)"/>
<path d="M0 0 C0 0.66 0 1.32 0 2 C-2.91708924 3.98362069 -4.12380904 3.9876191 -7.75 3.625 C-8.8225 3.41875 -9.895 3.2125 -11 3 C-11 2.34 -11 1.68 -11 1 C-9.88625 1.020625 -8.7725 1.04125 -7.625 1.0625 C-4.58237918 1.01004102 -2.83730029 0 0 0 Z " fill="#36D8D2" transform="translate(766,347)"/>
<path d="M0 0 C0.66 0 1.32 0 2 0 C1.34 3.3 0.68 6.6 0 10 C-0.99 9.67 -1.98 9.34 -3 9 C-2.44271087 5.65626525 -1.64826111 2.96687001 0 0 Z " fill="#E4FEFE" transform="translate(745,330)"/>
<path d="M0 0 C1.32 0 2.64 0 4 0 C3.67 1.65 3.34 3.3 3 5 C1.68 4.67 0.36 4.34 -1 4 C-0.67 2.68 -0.34 1.36 0 0 Z " fill="#4DABC5" transform="translate(596,324)"/>
<path d="M0 0 C0.66 0 1.32 0 2 0 C2.66 0.99 3.32 1.98 4 3 C4.66 3 5.32 3 6 3 C6 2.01 6 1.02 6 0 C6.66 0 7.32 0 8 0 C7.67 1.32 7.34 2.64 7 4 C4.625 4.625 4.625 4.625 2 5 C1.34 4.34 0.68 3.68 0 3 C0 2.01 0 1.02 0 0 Z " fill="#3D9EB7" transform="translate(615,303)"/>
<path d="M0 0 C2.31 0.33 4.62 0.66 7 1 C7 1.33 7 1.66 7 2 C5.35 2.33 3.7 2.66 2 3 C1.67 4.65 1.34 6.3 1 8 C0.34 7.67 -0.32 7.34 -1 7 C-0.67 4.69 -0.34 2.38 0 0 Z " fill="#E3FCFE" transform="translate(614,298)"/>
<path d="M0 0 C0.33 0.66 0.66 1.32 1 2 C-0.19625 1.938125 -1.3925 1.87625 -2.625 1.8125 C-6.73497595 1.79056063 -9.4478261 2.86869566 -13 5 C-13 3.68 -13 2.36 -13 1 C-8.59085217 -0.10228696 -4.51617599 -0.07654536 0 0 Z " fill="#DDFCFD" transform="translate(742,298)"/>
<path d="M0 0 C3.63 0 7.26 0 11 0 C10.67 0.99 10.34 1.98 10 3 C2.25 3.125 2.25 3.125 0 2 C0 1.34 0 0.68 0 0 Z " fill="#D8FBFD" transform="translate(673,296)"/>
<path d="M0 0 C2.475 0.99 2.475 0.99 5 2 C4.67 3.32 4.34 4.64 4 6 C2.68 6 1.36 6 0 6 C-0.38218767 4.34385343 -0.71395102 2.67542976 -1 1 C-0.67 0.67 -0.34 0.34 0 0 Z " fill="#32B6D5" transform="translate(646,289)"/>
<path d="M0 0 C0.66 0.474375 1.32 0.94875 2 1.4375 C5.7933028 3.41317854 8.75524068 3.64027463 13 4 C13 4.33 13 4.66 13 5 C11.39620659 5.05416188 9.79188594 5.09286638 8.1875 5.125 C7.29417969 5.14820313 6.40085937 5.17140625 5.48046875 5.1953125 C3 5 3 5 0 3 C0 2.01 0 1.02 0 0 Z " fill="#D5FCFC" transform="translate(693,448)"/>
<path d="M0 0 C-1.45381897 0.69699552 -2.91322953 1.38233866 -4.375 2.0625 C-5.18710937 2.44535156 -5.99921875 2.82820313 -6.8359375 3.22265625 C-7.55007813 3.47917969 -8.26421875 3.73570312 -9 4 C-9.66 3.67 -10.32 3.34 -11 3 C-7.83370093 -0.83288835 -4.68080329 -1.56026776 0 0 Z " fill="#D7FAFD" transform="translate(323,450)"/>
<path d="M0 0 C2.72647685 2.35468455 3.98756342 4.5408417 5 8 C4.546875 10.16015625 4.546875 10.16015625 4 12 C3.32332002 10.75539217 2.65905281 9.50403104 2 8.25 C1.62875 7.55390625 1.2575 6.8578125 0.875 6.140625 C0 4 0 4 0 0 Z " fill="#CBFAF9" transform="translate(498,388)"/>
<path d="M0 0 C2.475 0.495 2.475 0.495 5 1 C5.33 3.64 5.66 6.28 6 9 C3.59927045 6.11912454 1.52708963 3.43595166 0 0 Z " fill="#D8F9FC" transform="translate(360,369)"/>
<path d="M0 0 C3.81684226 1.55500981 6.19195732 4.03595495 9 7 C8.67 7.99 8.34 8.98 8 10 C8 9.34 8 8.68 8 8 C7.01 7.67 6.02 7.34 5 7 C2.3125 4.5625 2.3125 4.5625 0 2 C0 1.34 0 0.68 0 0 Z " fill="#42C2BD" transform="translate(506,357)"/>
<path d="M0 0 C3.5786304 1.65167557 6.74820188 3.78286492 10 6 C7 7 7 7 4 6 C4 5.34 4 4.68 4 4 C2.68 3.34 1.36 2.68 0 2 C0 1.34 0 0.68 0 0 Z " fill="#48C7C3" transform="translate(496,349)"/>
<path d="M0 0 C0.66 0.33 1.32 0.66 2 1 C0.25 5.875 0.25 5.875 -2 7 C-2 6.34 -2 5.68 -2 5 C-2.66 4.67 -3.32 4.34 -4 4 C-2.68 2.68 -1.36 1.36 0 0 Z " fill="#48D3CA" transform="translate(715,452)"/>
<path d="M0 0 C1.12377697 3.30435084 0.89554742 5.0506862 -0.4375 8.25 C-0.72496094 8.95640625 -1.01242188 9.6628125 -1.30859375 10.390625 C-1.53675781 10.92171875 -1.76492187 11.4528125 -2 12 C-2.66 11.67 -3.32 11.34 -4 11 C-2.7874262 7.27566618 -1.49140021 3.62197194 0 0 Z " fill="#D1F5FD" transform="translate(196,407)"/>
<path d="M0 0 C0.33 0.66 0.66 1.32 1 2 C-0.98 4.31 -2.96 6.62 -5 9 C-5.33 8.01 -5.66 7.02 -6 6 C-4.02 4.02 -2.04 2.04 0 0 Z " fill="#DFFCFD" transform="translate(429,374)"/>
<path d="M0 0 C2 2 2 2 2.25 4.9375 C2 8 2 8 0 11 C-0.66 10.67 -1.32 10.34 -2 10 C-1.34 6.7 -0.68 3.4 0 0 Z " fill="#D6FCFC" transform="translate(750,308)"/>
<path d="M0 0 C0.66 0 1.32 0 2 0 C2.125 6.75 2.125 6.75 1 9 C0.34 9 -0.32 9 -1 9 C-0.67 6.03 -0.34 3.06 0 0 Z " fill="#4CCCC2" transform="translate(668,477)"/>
<path d="M0 0 C2 3 2 3 2 5 C2.99 5.33 3.98 5.66 5 6 C5 6.66 5 7.32 5 8 C5.66 8.33 6.32 8.66 7 9 C4.625 8.75 4.625 8.75 2 8 C-0.09862498 5.10189884 0 3.71621139 0 0 Z " fill="#CEFBF9" transform="translate(709,469)"/>
<path d="M0 0 C0.66 0.33 1.32 0.66 2 1 C0.88121617 2.17262904 -0.24523051 3.33795138 -1.375 4.5 C-2.00148438 5.1496875 -2.62796875 5.799375 -3.2734375 6.46875 C-5 8 -5 8 -7 8 C-7 7.01 -7 6.02 -7 5 C-4.625 3.4375 -4.625 3.4375 -2 2 C-1.34 1.34 -0.68 0.68 0 0 Z " fill="#39AEC2" transform="translate(352,458)"/>
<path d="M0 0 C0.33 0 0.66 0 1 0 C1 2.64 1 5.28 1 8 C-0.98 8.99 -0.98 8.99 -3 10 C-2.01 6.7 -1.02 3.4 0 0 Z " fill="#D6FBFB" transform="translate(528,432)"/>
<path d="M0 0 C0.33 0.99 0.66 1.98 1 3 C0.00390625 4.82421875 0.00390625 4.82421875 -1.4375 6.6875 C-1.91058594 7.31011719 -2.38367188 7.93273437 -2.87109375 8.57421875 C-3.24363281 9.04472656 -3.61617188 9.51523437 -4 10 C-4.66 9.67 -5.32 9.34 -6 9 C-4.02 6.03 -2.04 3.06 0 0 Z " fill="#46B0C7" transform="translate(338,433)"/>
<path d="M0 0 C0.66 0.33 1.32 0.66 2 1 C2 2.32 2 3.64 2 5 C0.02 5.66 -1.96 6.32 -4 7 C-2.68 4.69 -1.36 2.38 0 0 Z " fill="#CEF8F7" transform="translate(736,470)"/>
<path d="M0 0 C0.66 0.33 1.32 0.66 2 1 C-0.64 2.98 -3.28 4.96 -6 7 C-6 6.01 -6 5.02 -6 4 C-3 1.8125 -3 1.8125 0 0 Z " fill="#48C3BE" transform="translate(503,466)"/>
<path d="M0 0 C0.66 0 1.32 0 2 0 C1.39009109 3.55780196 0.4216319 6.6828589 -1 10 C-2.31223496 6.06329512 -1.24296256 3.87511856 0 0 Z " fill="#3AC3BD" transform="translate(504,421)"/>
<path d="M0 0 C2.32472205 2.85306797 3.7508258 5.54074837 5 9 C4.01 9.495 4.01 9.495 3 10 C2.34 7.69 1.68 5.38 1 3 C0.34 3 -0.32 3 -1 3 C-0.67 2.01 -0.34 1.02 0 0 Z " fill="#43C6C1" transform="translate(521,374)"/>
<path d="M0 0 C0 0.33 0 0.66 0 1 C-2.64 1.66 -5.28 2.32 -8 3 C-8 3.66 -8 4.32 -8 5 C-8.66 5 -9.32 5 -10 5 C-9.6875 3.0625 -9.6875 3.0625 -9 1 C-5.8035914 -0.06546953 -3.34252724 -0.07427838 0 0 Z " fill="#5BC4C9" transform="translate(741,299)"/>
<path d="M0 0 C0.20086443 3.71599191 0.1519437 4.77208445 -2 8 C-2.66 8 -3.32 8 -4 8 C-3.74438677 5.6568787 -3.40729228 3.32156597 -3 1 C-1 0 -1 0 0 0 Z " fill="#34C8DB" transform="translate(719,293)"/>
<path d="M0 0 C0.33 0 0.66 0 1 0 C1 3.63 1 7.26 1 11 C0.01 11.33 -0.98 11.66 -2 12 C-1.34 8.04 -0.68 4.08 0 0 Z " fill="#B4F1EF" transform="translate(764,437)"/>
<path d="M0 0 C0.66 0.99 1.32 1.98 2 3 C1.25 6.625 1.25 6.625 0 10 C-0.99 10.495 -0.99 10.495 -2 11 C-1.85892253 9.54119891 -1.71197585 8.08296449 -1.5625 6.625 C-1.48128906 5.81289063 -1.40007812 5.00078125 -1.31640625 4.1640625 C-1 2 -1 2 0 0 Z " fill="#279FE4" transform="translate(150,437)"/>
<path d="M0 0 C0.66 0 1.32 0 2 0 C0.66666667 3.33333333 -0.66666667 6.66666667 -2 10 C-3.39195915 5.82412255 -1.82323219 3.86525224 0 0 Z " fill="#CEF5FE" transform="translate(165,403)"/>
<path d="M0 0 C2.375 0.3125 2.375 0.3125 5 1 C7 4 7 4 6.625 6.1875 C6.41875 6.785625 6.2125 7.38375 6 8 C5.38125 7.05125 4.7625 6.1025 4.125 5.125 C2.18029031 2.05554891 2.18029031 2.05554891 0 0 Z " fill="#CAFAF8" transform="translate(774,396)"/>
<path d="M0 0 C0.66 0 1.32 0 2 0 C3.06775224 1.96466413 4.06553465 3.96855359 5 6 C4.67 6.66 4.34 7.32 4 8 C1.44971017 6.72485508 1.06918289 5.59658703 0 3 C0 2.01 0 1.02 0 0 Z " fill="#4FB6CD" transform="translate(364,378)"/>
<path d="M0 0 C0.99 0 1.98 0 3 0 C4.4783226 2.95664519 4.06032783 5.74229737 4 9 C2.00902154 6.01353231 1.05875074 3.40312738 0 0 Z " fill="#C7FBF9" transform="translate(780,361)"/>
</svg>
