<svg xmlns="http://www.w3.org/2000/svg" shape-rendering="geometricPrecision" text-rendering="geometricPrecision" image-rendering="optimizeQuality" fill-rule="evenodd" clip-rule="evenodd" viewBox="0 0 512.001 468.553"><path fill="#fff" fill-rule="nonzero" d="M483.381 151.575H28.619v219.35c0 37.906 31.106 69.009 69.012 69.009h316.738c37.884 0 69.012-31.125 69.012-69.009v-219.35z"/><path fill="#FD5" d="M353.177 122.962l36.214-92.199c.286-.725.621-1.441.999-2.144H284.447l-37.054 94.343h105.784zm62.346-94.33l-37.051 94.33h104.909v-25.33c0-18.947-7.773-36.205-20.295-48.724-12.255-12.258-29.061-19.968-47.563-20.276zM88.36 122.962l36.215-92.199c.285-.725.62-1.441.998-2.144H97.631c-18.962 0-36.217 7.77-48.73 20.283-12.512 12.512-20.282 29.767-20.282 48.73v25.33H88.36zm62.352-94.343l-37.057 94.343h108.682l36.128-91.983c.315-.798.687-1.587 1.116-2.36H150.712z"/><path fill="#212121" fill-rule="nonzero" d="M97.631 0h316.738c53.704 0 97.632 43.927 97.632 97.632v273.293c0 53.682-43.95 97.628-97.632 97.628H97.631c-53.704 0-97.632-43.924-97.632-97.628V97.632C-.001 43.902 43.902 0 97.631 0zm255.546 122.962l36.214-92.199c.286-.725.621-1.441.999-2.144H284.447l-37.054 94.343h105.784zm62.346-94.33l-37.051 94.33h104.909v-25.33c0-37.461-30.413-68.377-67.858-69zM88.36 122.962l36.215-92.199c.285-.725.62-1.441.998-2.144H97.631c-37.928 0-69.012 31.084-69.012 69.013v25.33H88.36zm62.352-94.343l-37.057 94.343h108.682l36.128-91.983c.315-.798.687-1.587 1.116-2.36H150.712zm332.669 122.956H28.619v219.35c0 37.906 31.106 69.009 69.012 69.009h316.738c37.884 0 69.012-31.125 69.012-69.009v-219.35z"/><path fill="#212121" fill-rule="nonzero" d="M279.206 207.378c1.644-1.899 5.035-2.767 7.372-1.107l48.355 43.985c2.048 2.045 1.965 5.188-.165 7.382l-81.497 95.921-54.522-51.482 80.457-94.699zM239.4 369.118l-63.821 17.001 9.239-68.482 54.582 51.481z"/></svg>